<svg width="22" height="22" viewBox="0 0 22 22" fill="none" xmlns="http://www.w3.org/2000/svg">
<path fill-rule="evenodd" clip-rule="evenodd" d="M0.292893 0.292893C0.683417 -0.0976311 1.31658 -0.0976311 1.70711 0.292893L11.7071 10.2929C12.0976 10.6834 12.0976 11.3166 11.7071 11.7071L1.70711 21.7071C1.31658 22.0976 0.683417 22.0976 0.292893 21.7071C-0.0976311 21.3166 -0.0976311 20.6834 0.292893 20.2929L9.58579 11L0.292893 1.70711C-0.0976311 1.31658 -0.0976311 0.683417 0.292893 0.292893Z" fill="#001B19"/>
<path fill-rule="evenodd" clip-rule="evenodd" d="M10.2929 0.292893C10.6834 -0.0976311 11.3166 -0.0976311 11.7071 0.292893L21.7071 10.2929C22.0976 10.6834 22.0976 11.3166 21.7071 11.7071L11.7071 21.7071C11.3166 22.0976 10.6834 22.0976 10.2929 21.7071C9.90237 21.3166 9.90237 20.6834 10.2929 20.2929L19.5858 11L10.2929 1.70711C9.90237 1.31658 9.90237 0.683417 10.2929 0.292893Z" fill="#001B19"/>
</svg>
