<svg width="16" height="16" viewBox="0 0 16 16" fill="none" xmlns="http://www.w3.org/2000/svg">
<path d="M14 3.98665C11.78 3.76665 9.54667 3.65332 7.32 3.65332C6 3.65332 4.68 3.71999 3.36 3.85332L2 3.98665" stroke="#DE0000" stroke-width="1.5" stroke-linecap="round" stroke-linejoin="round"/>
<path d="M5.66666 3.31301L5.81332 2.43967C5.91999 1.80634 5.99999 1.33301 7.12666 1.33301H8.87332C9.99999 1.33301 10.0867 1.83301 10.1867 2.44634L10.3333 3.31301" stroke="#DE0000" stroke-width="1.5" stroke-linecap="round" stroke-linejoin="round"/>
<path d="M12.5667 6.09375L12.1333 12.8071C12.06 13.8537 12 14.6671 10.14 14.6671H5.85999C3.99999 14.6671 3.93999 13.8537 3.86665 12.8071L3.43332 6.09375" stroke="#DE0000" stroke-width="1.5" stroke-linecap="round" stroke-linejoin="round"/>
<path d="M6.88666 11H9.10666" stroke="#DE0000" stroke-width="1.5" stroke-linecap="round" stroke-linejoin="round"/>
<path d="M6.33334 8.33301H9.66668" stroke="#DE0000" stroke-width="1.5" stroke-linecap="round" stroke-linejoin="round"/>
</svg>
