<svg width="16" height="16" viewBox="0 0 16 16" fill="none" xmlns="http://www.w3.org/2000/svg">
<path d="M7.33334 1.33301H6.00001C2.66668 1.33301 1.33334 2.66634 1.33334 5.99967V9.99967C1.33334 13.333 2.66668 14.6663 6.00001 14.6663H10C13.3333 14.6663 14.6667 13.333 14.6667 9.99967V8.66634" stroke="#066163" stroke-width="1.5" stroke-linecap="round" stroke-linejoin="round"/>
<path d="M10.6933 2.0135L5.44001 7.26684C5.24001 7.46684 5.04001 7.86017 5.00001 8.14684L4.71334 10.1535C4.60668 10.8802 5.12001 11.3868 5.84668 11.2868L7.85334 11.0002C8.13334 10.9602 8.52668 10.7602 8.73334 10.5602L13.9867 5.30684C14.8933 4.40017 15.32 3.34684 13.9867 2.0135C12.6533 0.680168 11.6 1.10684 10.6933 2.0135Z" stroke="#066163" stroke-width="1.5" stroke-miterlimit="10" stroke-linecap="round" stroke-linejoin="round"/>
<path d="M9.94 2.7666C10.3867 4.35993 11.6333 5.6066 13.2333 6.05993" stroke="#066163" stroke-width="1.5" stroke-miterlimit="10" stroke-linecap="round" stroke-linejoin="round"/>
</svg>
