<svg width="200" height="41" viewBox="0 0 200 41" fill="none" xmlns="http://www.w3.org/2000/svg">
<g clip-path="url(#clip0_1_372)">
<path d="M64.6471 37.9866C63.106 37.9866 62.1157 37.1801 61.9824 35.8494H62.5376C62.6131 36.8889 63.4258 37.5206 64.6294 37.5206C65.8329 37.5206 66.5346 37.0367 66.5346 36.1765C66.5346 35.4327 66.1349 35.0877 65.0069 34.8637L64.1186 34.6979C62.8529 34.4425 62.2134 33.8377 62.2134 32.9057C62.2134 31.8438 63.1549 31.1135 64.5228 31.1135C65.9883 31.1135 66.9388 31.8976 67.0276 33.188H66.4769C66.3881 32.1664 65.6597 31.5705 64.5316 31.5705C63.4924 31.5705 62.7907 32.0903 62.7907 32.8878C62.7907 33.6181 63.2348 33.999 64.3318 34.232L65.22 34.4067C66.5524 34.6621 67.112 35.1818 67.112 36.1407C67.112 37.2921 66.1571 38.0135 64.616 38.0135" fill="url(#paint0_linear_1_372)"/>
<path d="M68.7852 37.8612V31.2345H69.3359V32.5787C69.5223 32.141 69.8322 31.7683 70.2271 31.507C70.6219 31.2457 71.0842 31.1073 71.5564 31.1091C72.0439 31.0879 72.5227 31.2434 72.9064 31.5475C73.2901 31.8515 73.5532 32.2841 73.6482 32.7669C73.8184 32.2851 74.1312 31.8677 74.5442 31.5712C74.9573 31.2747 75.4507 31.1134 75.9576 31.1091C77.3344 31.1091 78.1782 32.0052 78.1782 33.551V37.8657H77.6008V33.7436C77.6008 32.3681 76.9613 31.5975 75.7933 31.5975C74.6253 31.5975 73.777 32.5921 73.777 33.896V37.8567H73.1997V33.7436C73.1997 32.3681 72.5601 31.5975 71.3921 31.5975C70.2241 31.5975 69.3758 32.5921 69.3758 33.896V37.8567L68.7852 37.8612Z" fill="url(#paint1_linear_1_372)"/>
<path d="M84.1967 36.5215C84.0123 36.9733 83.694 37.3565 83.2854 37.6188C82.8767 37.8811 82.3977 38.0095 81.9139 37.9866C80.5816 37.9866 79.6934 37.2294 79.6934 36.051C79.6934 34.7472 80.7237 34.093 82.7267 34.093C83.2132 34.0926 83.6995 34.118 84.1834 34.1692V33.5464C84.1834 32.3098 83.5305 31.575 82.4291 31.575C82.1693 31.5564 81.9086 31.5943 81.6645 31.6861C81.4205 31.7779 81.1988 31.9214 81.0144 32.107C80.83 32.2925 80.6873 32.5159 80.5958 32.7619C80.5042 33.0079 80.4661 33.2708 80.4839 33.533H79.9465C79.9326 33.2049 79.9875 32.8777 80.1075 32.5725C80.2276 32.2673 80.4101 31.9911 80.6431 31.7619C80.8761 31.5327 81.1545 31.3557 81.4599 31.2425C81.7654 31.1292 82.0911 31.0822 82.4158 31.1045C83.8814 31.1045 84.7474 32.0006 84.7474 33.4837V37.8611H84.21L84.1967 36.5215ZM81.9761 37.5341C83.3085 37.5341 84.1967 36.6066 84.1967 35.2042V34.5859C83.7216 34.5354 83.2443 34.51 82.7666 34.5097C81.0879 34.5097 80.284 35.0026 80.284 36.0376C80.284 36.9337 80.9635 37.5341 81.9894 37.5341" fill="url(#paint2_linear_1_372)"/>
<path d="M87.2785 37.8611H86.7012V31.2345H87.2519V32.8475C87.45 32.3447 87.7918 31.9127 88.2338 31.6063C88.6759 31.3 89.1982 31.1331 89.7345 31.127V31.7497C89.4104 31.7399 89.0878 31.7968 88.7863 31.917C88.4848 32.0372 88.2108 32.2181 87.9809 32.4487C87.7511 32.6794 87.5702 32.9549 87.4495 33.2584C87.3287 33.5619 87.2705 33.8871 87.2785 34.214V37.8611Z" fill="url(#paint3_linear_1_372)"/>
<path d="M94.3885 37.8341C94.128 37.9363 93.8508 37.988 93.5713 37.9865C92.5676 37.9865 91.7416 37.5071 91.7416 36.0912V31.7138H90.125V31.2344H91.7416V29.2629H92.3323V31.2388H94.4507V31.7183H92.3323V35.9837C92.3323 37.0993 92.883 37.4533 93.6646 37.4533C93.9175 37.4591 94.1691 37.4165 94.4063 37.3278L94.3885 37.8341Z" fill="url(#paint4_linear_1_372)"/>
<path d="M101.446 37.9865C100.925 37.9876 100.415 37.8288 99.9853 37.5312C99.5554 37.2335 99.2254 36.811 99.039 36.3197V37.861H98.4883V28.7791H99.0656V32.8115C99.2354 32.3121 99.5567 31.8793 99.984 31.5745C100.411 31.2697 100.923 31.1084 101.446 31.1134C103.191 31.1134 104.333 32.4575 104.333 34.541C104.333 36.6244 103.2 37.9955 101.446 37.9955M101.393 31.6018C100.025 31.6018 99.0479 32.6861 99.0479 34.5096C99.0479 36.3332 100.003 37.4936 101.393 37.4936C102.783 37.4936 103.751 36.3825 103.751 34.532C103.751 32.6816 102.836 31.6018 101.393 31.6018Z" fill="url(#paint5_linear_1_372)"/>
<path d="M110.111 31.2344H110.719V37.861H110.168V36.5438C109.99 36.975 109.688 37.3427 109.301 37.5997C108.914 37.8567 108.46 37.9914 107.997 37.9865C106.664 37.9865 105.803 37.2293 105.803 35.5715V31.2344H106.38V35.4326C106.38 36.9246 107.117 37.4936 108.121 37.4936C109.325 37.4936 110.128 36.5079 110.128 35.231L110.111 31.2344Z" fill="url(#paint6_linear_1_372)"/>
<path d="M114.924 37.9866C113.383 37.9866 112.393 37.1801 112.26 35.8494H112.815C112.89 36.8889 113.703 37.5206 114.907 37.5206C116.11 37.5206 116.812 37.0367 116.812 36.1765C116.812 35.4327 116.412 35.0877 115.284 34.8637L114.396 34.6979C113.13 34.4425 112.491 33.8377 112.491 32.9057C112.491 31.8438 113.432 31.1135 114.8 31.1135C116.266 31.1135 117.216 31.8976 117.305 33.188H116.754C116.665 32.1664 115.937 31.5705 114.809 31.5705C113.77 31.5705 113.068 32.0903 113.068 32.8878C113.068 33.6181 113.512 33.999 114.609 34.232L115.497 34.4067C116.83 34.6621 117.389 35.1818 117.389 36.1407C117.389 37.2921 116.434 38.0135 114.893 38.0135" fill="url(#paint7_linear_1_372)"/>
<path d="M119.353 30.2442C119.279 30.2473 119.206 30.2351 119.137 30.2085C119.068 30.1818 119.005 30.1412 118.952 30.0892C118.9 30.0372 118.858 29.9748 118.83 29.9059C118.802 29.837 118.788 29.7631 118.789 29.6887C118.789 29.6162 118.805 29.5447 118.834 29.4785C118.863 29.4124 118.905 29.353 118.958 29.3042C119.011 29.2553 119.074 29.2181 119.142 29.1948C119.21 29.1715 119.282 29.1627 119.353 29.1689C119.424 29.1647 119.494 29.1749 119.561 29.1991C119.627 29.2232 119.688 29.2607 119.739 29.3094C119.791 29.358 119.832 29.4167 119.86 29.4819C119.889 29.5471 119.903 29.6175 119.904 29.6887C119.905 29.7619 119.892 29.8347 119.864 29.9027C119.837 29.9706 119.797 30.0324 119.745 30.0842C119.694 30.136 119.633 30.1769 119.565 30.2044C119.498 30.2319 119.426 30.2454 119.353 30.2442ZM119.064 31.2344H119.642V37.8611H119.064V31.2344Z" fill="url(#paint8_linear_1_372)"/>
<path d="M122.236 37.861H121.658V31.2344H122.209V32.5785C122.4 32.1431 122.71 31.7719 123.104 31.5091C123.498 31.2463 123.958 31.1027 124.429 31.0955C125.824 31.0955 126.686 31.9916 126.686 33.5373V37.8521H126.108V33.7434C126.108 32.3634 125.46 31.5838 124.292 31.5838C124.006 31.5975 123.725 31.6685 123.466 31.7924C123.208 31.9164 122.976 32.0911 122.785 32.3061C122.593 32.5212 122.446 32.7725 122.352 33.0454C122.258 33.3183 122.218 33.6073 122.236 33.8958V37.861Z" fill="url(#paint9_linear_1_372)"/>
<path d="M128.143 34.4828C128.143 32.5472 129.395 31.1045 131.074 31.1045C132.881 31.1045 134.049 32.5607 133.96 34.6889H128.72C128.795 36.4229 129.71 37.5251 131.14 37.5251C131.687 37.5559 132.226 37.3775 132.648 37.0253C133.071 36.6731 133.346 36.1732 133.419 35.6253H133.983C133.884 36.3063 133.539 36.9263 133.015 37.3657C132.49 37.8051 131.822 38.0327 131.14 38.0045C129.364 38.0045 128.143 36.6021 128.143 34.4873M128.733 34.2364H133.37C133.285 32.5651 132.433 31.5481 131.087 31.5481C129.741 31.5481 128.818 32.6234 128.747 34.2364" fill="url(#paint10_linear_1_372)"/>
<path d="M137.721 37.9866C136.176 37.9866 135.185 37.1801 135.057 35.8494H135.607C135.683 36.8889 136.496 37.5206 137.704 37.5206C138.912 37.5206 139.609 37.0367 139.609 36.1765C139.609 35.4327 139.205 35.0877 138.077 34.8637L137.188 34.6979C135.923 34.4425 135.283 33.8377 135.283 32.9057C135.283 31.8438 136.22 31.1135 137.588 31.1135C139.058 31.1135 140.009 31.8976 140.097 33.188H139.587C139.498 32.1664 138.769 31.5705 137.641 31.5705C136.602 31.5705 135.896 32.0903 135.896 32.8878C135.896 33.6181 136.34 33.999 137.442 34.232L138.33 34.4067C139.662 34.6621 140.226 35.1818 140.226 36.1407C140.226 37.2921 139.271 38.0135 137.73 38.0135" fill="url(#paint11_linear_1_372)"/>
<path d="M144.064 37.9866C142.523 37.9866 141.533 37.1801 141.422 35.8494H141.973C142.048 36.8889 142.861 37.5206 144.064 37.5206C145.268 37.5206 145.97 37.0367 145.97 36.1765C145.97 35.4327 145.57 35.0877 144.442 34.8637L143.554 34.6979C142.288 34.4425 141.648 33.8377 141.648 32.9057C141.648 31.8438 142.59 31.1135 143.958 31.1135C145.423 31.1135 146.378 31.8976 146.463 33.188H145.912C145.823 32.1664 145.099 31.5705 143.971 31.5705C142.927 31.5705 142.226 32.0903 142.226 32.8878C142.226 33.6181 142.67 33.999 143.767 34.232L144.655 34.4067C145.987 34.6621 146.547 35.1818 146.547 36.1407C146.547 37.2921 145.597 38.0135 144.051 38.0135" fill="url(#paint12_linear_1_372)"/>
<path d="M153.03 37.9866C151.489 37.9866 150.498 37.1801 150.365 35.8494H150.916C150.991 36.8889 151.804 37.5206 153.012 37.5206C154.22 37.5206 154.917 37.0367 154.917 36.1765C154.917 35.4327 154.518 35.0877 153.39 34.8637L152.501 34.6979C151.236 34.4425 150.596 33.8377 150.596 32.9057C150.596 31.8438 151.538 31.1135 152.901 31.1135C154.371 31.1135 155.322 31.8976 155.41 33.188H154.86C154.771 32.1664 154.043 31.5705 152.914 31.5705C151.875 31.5705 151.174 32.0903 151.174 32.8878C151.174 33.6181 151.618 33.999 152.715 34.232L153.603 34.4067C154.935 34.6621 155.499 35.1818 155.499 36.1407C155.499 37.2921 154.544 38.0135 153.003 38.0135" fill="url(#paint13_linear_1_372)"/>
<path d="M156.654 34.5321C156.654 32.5338 157.92 31.1179 159.714 31.1179C161.508 31.1179 162.774 32.5338 162.774 34.5321C162.774 36.5304 161.504 37.9865 159.714 37.9865C157.924 37.9865 156.654 36.5707 156.654 34.5321ZM162.184 34.5321C162.184 32.7757 161.144 31.6108 159.714 31.6108C158.284 31.6108 157.241 32.7757 157.241 34.5321C157.241 36.2884 158.284 37.4937 159.714 37.4937C161.144 37.4937 162.184 36.3287 162.184 34.5321Z" fill="url(#paint14_linear_1_372)"/>
<path d="M164.866 28.7791H164.289V37.861H164.866V28.7791Z" fill="url(#paint15_linear_1_372)"/>
<path d="M171.16 31.2344H171.75V37.861H171.2V36.5438C171.022 36.9754 170.72 37.3434 170.333 37.6005C169.946 37.8576 169.491 37.992 169.028 37.9865C167.696 37.9865 166.834 37.2293 166.834 35.5715V31.2344H167.411V35.4326C167.411 36.9246 168.153 37.4936 169.152 37.4936C170.36 37.4936 171.16 36.5079 171.16 35.231V31.2344Z" fill="url(#paint16_linear_1_372)"/>
<path d="M176.892 37.8341C176.634 37.9365 176.358 37.9882 176.08 37.9865C175.076 37.9865 174.245 37.5071 174.245 36.0912V31.7138H172.629V31.2344H174.245V29.2629H174.836V31.2388H176.955V31.7183H174.836V35.9837C174.836 37.0993 175.391 37.4533 176.169 37.4533C176.415 37.4571 176.661 37.4145 176.892 37.3278V37.8341Z" fill="url(#paint17_linear_1_372)"/>
<path d="M178.67 30.2443C178.596 30.2474 178.522 30.2352 178.453 30.2086C178.384 30.1819 178.322 30.1413 178.269 30.0893C178.216 30.0373 178.174 29.9749 178.146 29.906C178.118 29.8372 178.104 29.7632 178.106 29.6888C178.107 29.6166 178.122 29.5453 178.152 29.4795C178.181 29.4136 178.223 29.3545 178.276 29.3058C178.329 29.2571 178.391 29.2199 178.459 29.1963C178.526 29.1728 178.598 29.1635 178.67 29.169C178.74 29.1641 178.811 29.1739 178.878 29.1978C178.945 29.2216 179.007 29.2591 179.059 29.3078C179.111 29.3565 179.152 29.4154 179.181 29.4809C179.209 29.5464 179.224 29.6172 179.225 29.6888C179.226 29.7624 179.212 29.8356 179.185 29.9039C179.157 29.9721 179.116 30.0341 179.065 30.086C179.013 30.1379 178.951 30.1786 178.883 30.2059C178.815 30.2331 178.743 30.2462 178.67 30.2443ZM178.381 31.2345H178.958V37.8612H178.381V31.2345Z" fill="url(#paint18_linear_1_372)"/>
<path d="M180.445 34.5321C180.445 32.5338 181.711 31.1179 183.505 31.1179C185.3 31.1179 186.565 32.5338 186.565 34.5321C186.565 36.5304 185.3 37.9865 183.505 37.9865C181.711 37.9865 180.445 36.5707 180.445 34.5321ZM185.975 34.5321C185.975 32.7757 184.935 31.6108 183.505 31.6108C182.075 31.6108 181.036 32.7757 181.036 34.5321C181.036 36.2884 182.075 37.4937 183.505 37.4937C184.935 37.4937 185.975 36.3287 185.975 34.5321Z" fill="url(#paint19_linear_1_372)"/>
<path d="M188.675 37.861H188.098V31.2344H188.653V32.5785C188.843 32.1424 189.153 31.7707 189.547 31.5077C189.941 31.2447 190.401 31.1016 190.873 31.0955C192.268 31.0955 193.129 31.9916 193.129 33.5373V37.8521H192.552V33.7434C192.552 32.3634 191.904 31.5838 190.736 31.5838C190.45 31.5975 190.169 31.6685 189.91 31.7924C189.652 31.9164 189.42 32.0911 189.229 32.3061C189.037 32.5212 188.89 32.7725 188.796 33.0454C188.702 33.3183 188.662 33.6073 188.679 33.8958L188.675 37.861Z" fill="url(#paint20_linear_1_372)"/>
<path d="M197.322 37.9866C195.781 37.9866 194.791 37.1801 194.68 35.8494H195.23C195.306 36.8889 196.119 37.5206 197.322 37.5206C198.526 37.5206 199.232 37.0367 199.232 36.1765C199.232 35.4327 198.828 35.0877 197.7 34.8637L196.811 34.6979C195.541 34.4425 194.902 33.8377 194.902 32.9057C194.902 31.8438 195.843 31.1135 197.211 31.1135C198.677 31.1135 199.632 31.8976 199.72 33.188H199.165C199.081 32.1664 198.353 31.5705 197.224 31.5705C196.181 31.5705 195.479 32.0903 195.479 32.8878C195.479 33.6181 195.923 33.999 197.025 34.232L197.913 34.4067C199.245 34.6621 199.805 35.1818 199.805 36.1407C199.805 37.2921 198.854 38.0135 197.309 38.0135" fill="url(#paint21_linear_1_372)"/>
<path d="M62.1992 1.70801H67.7063L74.0349 14.4506L80.368 1.70801H85.9061V24.1777H81.8647V7.12942L74.0038 22.5737L66.1119 7.09805V24.1777H62.1992V1.70801Z" fill="url(#paint22_linear_1_372)"/>
<path d="M88.9927 15.8618C88.9762 14.7403 89.1816 13.6269 89.5971 12.5866C90.0125 11.5463 90.6296 10.6001 91.4122 9.80351C92.1948 9.00692 93.1271 8.37592 94.1545 7.94749C95.1819 7.51906 96.2837 7.30182 97.3954 7.3085C102.041 7.3085 105.509 11.0945 105.509 16.1665V17.2283H93.0741C93.3289 18.3374 93.9528 19.3248 94.8418 20.0259C95.7308 20.7271 96.8311 21.0997 97.9594 21.0816C99.3409 21.12 100.685 20.6248 101.717 19.6971L104.355 22.1703C102.513 23.7298 100.173 24.5624 97.7684 24.5136C92.8032 24.5136 88.9883 20.7276 88.9883 15.8797M101.526 14.307C101.046 12.1878 99.3584 10.6778 97.2932 10.6778C95.1615 10.6778 93.536 12.0892 93.0297 14.307H101.526Z" fill="url(#paint23_linear_1_372)"/>
<path d="M108.271 1.70792L112.313 1V24.1776H108.271V1.70792Z" fill="url(#paint24_linear_1_372)"/>
<path d="M115.08 15.8618C115.063 14.7403 115.269 13.6269 115.684 12.5866C116.1 11.5463 116.717 10.6001 117.499 9.80351C118.282 9.00692 119.214 8.37592 120.241 7.94749C121.269 7.51906 122.371 7.30182 123.482 7.3085C128.128 7.3085 131.596 11.0945 131.596 16.1665V17.2283H119.157C119.413 18.3366 120.037 19.323 120.926 20.0239C121.815 20.7248 122.914 21.098 124.042 21.0816C125.422 21.1188 126.764 20.6237 127.795 19.6971L130.437 22.1703C128.595 23.7291 126.255 24.5616 123.851 24.5136C118.886 24.5136 115.066 20.7276 115.066 15.8797M127.604 14.307C127.129 12.1878 125.441 10.6778 123.371 10.6778C121.302 10.6778 119.619 12.0892 119.108 14.307H127.604Z" fill="url(#paint25_linear_1_372)"/>
<path d="M139.201 20.5797L141.679 17.4972C144.228 19.8091 146.564 20.8351 149.256 20.8351C152.182 20.8351 154.056 19.6164 154.056 17.757C154.056 16.0858 152.946 15.2838 150.144 14.7999L145.942 14.0651C142.03 13.3885 140.058 11.3768 140.058 8.09258C140.058 3.98396 143.367 1.37183 148.652 1.37183C151.953 1.38203 155.161 2.48372 157.783 4.50818L155.491 7.75654C153.106 5.89713 150.814 5.02792 148.385 5.02792C145.778 5.02792 144.091 6.12116 144.091 7.78791C144.091 9.29784 145.045 10.0282 147.461 10.4224L151.503 11.0945C156.055 11.8338 158.249 13.9217 158.249 17.3672C158.249 21.6999 154.589 24.4912 148.958 24.4912C145.328 24.475 141.839 23.0764 139.188 20.5753" fill="url(#paint26_linear_1_372)"/>
<path d="M161.092 1.70337H171.306C175.748 1.70337 178.785 4.1766 178.785 7.80581C178.785 9.85788 177.671 11.5291 175.89 12.5865C178.15 13.5498 179.549 15.4137 179.549 17.6898C179.549 21.5744 176.44 24.1776 171.786 24.1776H161.092V1.70337ZM171.049 10.9825C173.181 10.9825 174.517 9.88926 174.517 8.12394C174.517 6.35862 173.185 5.26986 171.049 5.26986H165.346V10.9825H171.049ZM171.462 20.6111C173.754 20.6111 175.25 19.361 175.25 17.4747C175.25 15.5885 173.754 14.3608 171.462 14.3608H165.346V20.6335L171.462 20.6111Z" fill="url(#paint27_linear_1_372)"/>
<path d="M180.944 20.5797L183.426 17.4972C185.971 19.8091 188.311 20.8351 190.998 20.8351C193.925 20.8351 195.804 19.6164 195.804 17.757C195.804 16.0858 194.689 15.2838 191.891 14.7999L187.69 14.0651C183.777 13.3885 181.801 11.3768 181.801 8.09258C181.801 3.98396 185.109 1.37183 190.394 1.37183C193.696 1.38203 196.903 2.48372 199.525 4.50818L197.234 7.75654C194.849 5.89713 192.557 5.02792 190.128 5.02792C187.516 5.02792 185.829 6.12116 185.829 7.78791C185.829 9.29784 186.784 10.0282 189.204 10.4224L193.246 11.0945C197.793 11.8338 199.987 13.9217 199.987 17.3672C199.987 21.6999 196.332 24.4912 190.696 24.4912C187.067 24.4741 183.577 23.0756 180.926 20.5753" fill="url(#paint28_linear_1_372)"/>
</g>
<g clip-path="url(#clip1_1_372)">
<path d="M37.7281 6.17785L37.3303 6.41398L28.5548 11.5607L24.8645 13.7244L23.5081 14.5243L23.4746 14.5388L23.4458 14.5243L22.0895 13.7244L18.3943 11.5607L9.62369 6.41398L9.2259 6.17785L6.85352 4.78516V22.8949L13.779 26.9622V26.9573L18.6436 29.5259V26.7405L9.62369 21.7336V16.9242L18.6388 21.9311V21.9263L18.6436 21.9311V19.1409L9.62369 14.1388V9.19935L13.1751 11.2812L15.4852 12.6401L22.0895 16.5146V31.8342L23.4746 32.6486L24.8645 31.8342V16.5146L31.4688 12.6401L33.7789 11.2812L37.3303 9.19935V14.1388L28.3104 19.1409V21.9311L28.3152 21.9263V21.9311L37.3303 16.9242V21.7336L28.3104 26.7405V29.5259L33.175 26.9573V26.9622L40.1005 22.8949V4.78516L37.7281 6.17785Z" fill="url(#paint29_linear_1_372)"/>
<path d="M28.3109 19.9603V21.9216L27.5488 21.4831V19.5217L28.3109 19.9603Z" fill="url(#paint30_radial_1_372)"/>
<path d="M38.0932 8.75122V14.5774L37.3359 14.134V9.19457L38.0932 8.75122Z" fill="url(#paint31_radial_1_372)"/>
<path d="M37.3355 14.1389L38.0928 14.5774L36.5735 15.4641L28.3109 19.9651L27.5488 19.5217L36.5735 14.5774L37.3355 14.1389Z" fill="url(#paint32_radial_1_372)"/>
<path d="M28.3109 26.7358V29.526L27.5488 29.0875V26.2925L28.3109 26.7358Z" fill="url(#paint33_radial_1_372)"/>
<path d="M38.0932 16.4761V21.3529L37.3359 20.9095V16.9146L38.0932 16.4761Z" fill="url(#paint34_radial_1_372)"/>
<path d="M37.3355 20.9146L38.0928 21.3531L36.5735 22.2398L28.3109 26.7407L27.5488 26.2925L36.5735 21.3531L37.3355 20.9146Z" fill="url(#paint35_radial_1_372)"/>
<path d="M18.6387 19.9748V21.9362L19.4007 21.4928V19.5315L18.6387 19.9748Z" fill="url(#paint36_radial_1_372)"/>
<path d="M9.61914 9.18994V15.0161L10.3812 14.5728V9.63329L9.61914 9.18994Z" fill="url(#paint37_radial_1_372)"/>
<path d="M10.3812 14.5774L9.61914 15.0159L11.1384 15.9026L18.639 19.9795L19.401 19.5313L11.1384 15.0159L10.3812 14.5774Z" fill="url(#paint38_radial_1_372)"/>
<path d="M18.6387 26.7502V29.5404L19.4007 29.0971V26.3069L18.6387 26.7502Z" fill="url(#paint39_radial_1_372)"/>
<path d="M9.61914 16.9099V21.7916L10.3812 21.3482V17.3533L9.61914 16.9099Z" fill="url(#paint40_radial_1_372)"/>
<path d="M10.3812 21.353L9.61914 21.7916L11.1384 22.6734L18.639 26.7551L19.401 26.307L11.1384 21.7916L10.3812 21.353Z" fill="url(#paint41_radial_1_372)"/>
<path d="M40.1005 4.78521H40.0957L39.3432 4.34668L39.3384 4.3515L37.8143 5.23337L23.4746 13.657L9.13963 5.23337L7.61555 4.3515L7.61076 4.34668L6.85831 4.78521H6.85352L6.85831 4.79003L22.7221 14.1003L22.7173 14.1051L23.4746 14.5389L24.2366 14.1051L24.227 14.1003L40.0957 4.79003L40.1005 4.78521Z" fill="url(#paint42_radial_1_372)"/>
<path d="M43.9212 2.21192V25.6033L23.4803 37.4629L3.04904 25.6033V2.21192L-0.00390625 0.443359V27.3719L23.4803 41L46.9645 27.3719V0.443359L43.9212 2.21192Z" fill="url(#paint43_linear_1_372)"/>
<path d="M44.6776 26.0466L24.2272 37.8821L23.4652 38.3206L22.7079 37.8821L2.29102 26.0466L3.04826 25.6033L23.4652 37.4435L43.9204 25.6033L44.6776 26.0466Z" fill="url(#paint44_radial_1_372)"/>
<path d="M3.04826 1.3252V25.5744L2.29102 26.0466V1.76372L3.04826 1.3252Z" fill="url(#paint45_radial_1_372)"/>
<path d="M3.04816 1.32522L2.29091 1.76375L0.0047927 0.438528H0L0.0047927 0.433709L0.757246 0L0.762039 0.00481899L2.29091 0.886695L3.04816 1.32522Z" fill="url(#paint46_radial_1_372)"/>
<path d="M43.9102 1.3252V25.5744L44.6722 26.0466V1.76372L43.9149 1.3252H43.9102Z" fill="url(#paint47_radial_1_372)"/>
<path d="M43.916 1.32522L44.6733 1.76375L46.9594 0.438528H46.9642L46.9594 0.433709L46.2021 0L46.1973 0.00481899L44.6733 0.886695L43.916 1.32522Z" fill="url(#paint48_radial_1_372)"/>
</g>
<defs>
<linearGradient id="paint0_linear_1_372" x1="46.2986" y1="29.6824" x2="84.8416" y2="35.7313" gradientUnits="userSpaceOnUse">
<stop/>
<stop offset="1" stop-color="#4D4E4E"/>
</linearGradient>
<linearGradient id="paint1_linear_1_372" x1="40.0655" y1="29.7054" x2="106.651" y2="49.2414" gradientUnits="userSpaceOnUse">
<stop/>
<stop offset="1" stop-color="#4D4E4E"/>
</linearGradient>
<linearGradient id="paint2_linear_1_372" x1="64.2404" y1="29.6701" x2="102.24" y2="35.5544" gradientUnits="userSpaceOnUse">
<stop/>
<stop offset="1" stop-color="#4D4E4E"/>
</linearGradient>
<linearGradient id="paint3_linear_1_372" x1="77.4267" y1="29.7302" x2="100.571" y2="31.931" gradientUnits="userSpaceOnUse">
<stop/>
<stop offset="1" stop-color="#4D4E4E"/>
</linearGradient>
<linearGradient id="paint4_linear_1_372" x1="76.899" y1="27.4536" x2="109.841" y2="30.902" gradientUnits="userSpaceOnUse">
<stop/>
<stop offset="1" stop-color="#4D4E4E"/>
</linearGradient>
<linearGradient id="paint5_linear_1_372" x1="80.6183" y1="26.8675" x2="124.823" y2="32.7853" gradientUnits="userSpaceOnUse">
<stop/>
<stop offset="1" stop-color="#4D4E4E"/>
</linearGradient>
<linearGradient id="paint6_linear_1_372" x1="90.7707" y1="29.8339" x2="127.748" y2="35.5176" gradientUnits="userSpaceOnUse">
<stop/>
<stop offset="1" stop-color="#4D4E4E"/>
</linearGradient>
<linearGradient id="paint7_linear_1_372" x1="96.576" y1="29.6824" x2="135.119" y2="35.7313" gradientUnits="userSpaceOnUse">
<stop/>
<stop offset="1" stop-color="#4D4E4E"/>
</linearGradient>
<linearGradient id="paint8_linear_1_372" x1="115.38" y1="27.3638" x2="123.957" y2="27.5959" gradientUnits="userSpaceOnUse">
<stop/>
<stop offset="1" stop-color="#4D4E4E"/>
</linearGradient>
<linearGradient id="paint9_linear_1_372" x1="106.287" y1="29.6922" x2="144.063" y2="35.6182" gradientUnits="userSpaceOnUse">
<stop/>
<stop offset="1" stop-color="#4D4E4E"/>
</linearGradient>
<linearGradient id="paint10_linear_1_372" x1="110.286" y1="29.6729" x2="153.859" y2="37.4559" gradientUnits="userSpaceOnUse">
<stop/>
<stop offset="1" stop-color="#4D4E4E"/>
</linearGradient>
<linearGradient id="paint11_linear_1_372" x1="119.251" y1="29.6824" x2="158.079" y2="35.8237" gradientUnits="userSpaceOnUse">
<stop/>
<stop offset="1" stop-color="#4D4E4E"/>
</linearGradient>
<linearGradient id="paint12_linear_1_372" x1="125.752" y1="29.6824" x2="164.263" y2="35.7211" gradientUnits="userSpaceOnUse">
<stop/>
<stop offset="1" stop-color="#4D4E4E"/>
</linearGradient>
<linearGradient id="paint13_linear_1_372" x1="134.668" y1="29.6824" x2="173.243" y2="35.7416" gradientUnits="userSpaceOnUse">
<stop/>
<stop offset="1" stop-color="#4D4E4E"/>
</linearGradient>
<linearGradient id="paint14_linear_1_372" x1="137.942" y1="29.6933" x2="183.45" y2="38.253" gradientUnits="userSpaceOnUse">
<stop/>
<stop offset="1" stop-color="#4D4E4E"/>
</linearGradient>
<linearGradient id="paint15_linear_1_372" x1="162.524" y1="26.8954" x2="166.968" y2="26.955" gradientUnits="userSpaceOnUse">
<stop/>
<stop offset="1" stop-color="#4D4E4E"/>
</linearGradient>
<linearGradient id="paint16_linear_1_372" x1="151.802" y1="29.8339" x2="188.779" y2="35.5176" gradientUnits="userSpaceOnUse">
<stop/>
<stop offset="1" stop-color="#4D4E4E"/>
</linearGradient>
<linearGradient id="paint17_linear_1_372" x1="159.403" y1="27.4536" x2="192.345" y2="30.902" gradientUnits="userSpaceOnUse">
<stop/>
<stop offset="1" stop-color="#4D4E4E"/>
</linearGradient>
<linearGradient id="paint18_linear_1_372" x1="174.683" y1="27.3643" x2="183.294" y2="27.5984" gradientUnits="userSpaceOnUse">
<stop/>
<stop offset="1" stop-color="#4D4E4E"/>
</linearGradient>
<linearGradient id="paint19_linear_1_372" x1="161.733" y1="29.6933" x2="207.241" y2="38.253" gradientUnits="userSpaceOnUse">
<stop/>
<stop offset="1" stop-color="#4D4E4E"/>
</linearGradient>
<linearGradient id="paint20_linear_1_372" x1="172.713" y1="29.6922" x2="210.521" y2="35.6284" gradientUnits="userSpaceOnUse">
<stop/>
<stop offset="1" stop-color="#4D4E4E"/>
</linearGradient>
<linearGradient id="paint21_linear_1_372" x1="179.009" y1="29.6824" x2="217.521" y2="35.7211" gradientUnits="userSpaceOnUse">
<stop/>
<stop offset="1" stop-color="#4D4E4E"/>
</linearGradient>
<linearGradient id="paint22_linear_1_372" x1="-10.2857" y1="-2.95242" x2="163.607" y2="35.7788" gradientUnits="userSpaceOnUse">
<stop/>
<stop offset="1" stop-color="#4D4E4E"/>
</linearGradient>
<linearGradient id="paint23_linear_1_372" x1="38.4743" y1="3.7394" x2="160.651" y2="28.5032" gradientUnits="userSpaceOnUse">
<stop/>
<stop offset="1" stop-color="#4D4E4E"/>
</linearGradient>
<linearGradient id="paint24_linear_1_372" x1="95.9146" y1="-3.80725" x2="126.988" y2="-2.66344" gradientUnits="userSpaceOnUse">
<stop/>
<stop offset="1" stop-color="#4D4E4E"/>
</linearGradient>
<linearGradient id="paint25_linear_1_372" x1="64.5252" y1="3.73941" x2="186.762" y2="28.5289" gradientUnits="userSpaceOnUse">
<stop/>
<stop offset="1" stop-color="#4D4E4E"/>
</linearGradient>
<linearGradient id="paint26_linear_1_372" x1="80.9063" y1="-3.42335" x2="223.345" y2="21.3686" gradientUnits="userSpaceOnUse">
<stop/>
<stop offset="1" stop-color="#4D4E4E"/>
</linearGradient>
<linearGradient id="paint27_linear_1_372" x1="104.657" y1="-2.95799" x2="242.614" y2="20.9605" gradientUnits="userSpaceOnUse">
<stop/>
<stop offset="1" stop-color="#4D4E4E"/>
</linearGradient>
<linearGradient id="paint28_linear_1_372" x1="122.645" y1="-3.42335" x2="265.083" y2="21.3686" gradientUnits="userSpaceOnUse">
<stop/>
<stop offset="1" stop-color="#4D4E4E"/>
</linearGradient>
<linearGradient id="paint29_linear_1_372" x1="6.85352" y1="18.7169" x2="40.1005" y2="18.7169" gradientUnits="userSpaceOnUse">
<stop stop-color="#107980"/>
<stop offset="1" stop-color="#86D3E5"/>
</linearGradient>
<radialGradient id="paint30_radial_1_372" cx="0" cy="0" r="1" gradientUnits="userSpaceOnUse" gradientTransform="translate(27.9322 20.4277) scale(2.54972 2.56371)">
<stop stop-color="#6BCBE2"/>
<stop offset="1" stop-color="#327B80"/>
</radialGradient>
<radialGradient id="paint31_radial_1_372" cx="0" cy="0" r="1" gradientUnits="userSpaceOnUse" gradientTransform="translate(24.6065 7.93681) scale(25.0083 25.1455)">
<stop stop-color="#6BCBE2"/>
<stop offset="1" stop-color="#327B80"/>
</radialGradient>
<radialGradient id="paint32_radial_1_372" cx="0" cy="0" r="1" gradientUnits="userSpaceOnUse" gradientTransform="translate(24.5055 8.20191) scale(24.1887 24.3215)">
<stop stop-color="#6BCBE2"/>
<stop offset="1" stop-color="#327B80"/>
</radialGradient>
<radialGradient id="paint33_radial_1_372" cx="0" cy="0" r="1" gradientUnits="userSpaceOnUse" gradientTransform="translate(27.9322 27.5117) scale(3.37885 3.39739)">
<stop stop-color="#6BCBE2"/>
<stop offset="1" stop-color="#327B80"/>
</radialGradient>
<radialGradient id="paint34_radial_1_372" cx="0" cy="0" r="1" gradientUnits="userSpaceOnUse" gradientTransform="translate(24.6065 15.7918) scale(24.275 24.4082)">
<stop stop-color="#6BCBE2"/>
<stop offset="1" stop-color="#327B80"/>
</radialGradient>
<radialGradient id="paint35_radial_1_372" cx="0" cy="0" r="1" gradientUnits="userSpaceOnUse" gradientTransform="translate(24.5055 14.9775) scale(24.1887 24.3215)">
<stop stop-color="#6BCBE2"/>
<stop offset="1" stop-color="#327B80"/>
</radialGradient>
<radialGradient id="paint36_radial_1_372" cx="0" cy="0" r="1" gradientUnits="userSpaceOnUse" gradientTransform="translate(19.0173 20.4375) rotate(180) scale(2.54972 2.56371)">
<stop stop-color="#6BCBE2"/>
<stop offset="1" stop-color="#327B80"/>
</radialGradient>
<radialGradient id="paint37_radial_1_372" cx="0" cy="0" r="1" gradientUnits="userSpaceOnUse" gradientTransform="translate(23.101 8.37553) rotate(180) scale(25.0083 25.1455)">
<stop stop-color="#6BCBE2"/>
<stop offset="1" stop-color="#327B80"/>
</radialGradient>
<radialGradient id="paint38_radial_1_372" cx="0" cy="0" r="1" gradientUnits="userSpaceOnUse" gradientTransform="translate(22.2239 9.06928) rotate(180) scale(22.4298 22.5529)">
<stop stop-color="#6BCBE2"/>
<stop offset="1" stop-color="#327B80"/>
</radialGradient>
<radialGradient id="paint39_radial_1_372" cx="0" cy="0" r="1" gradientUnits="userSpaceOnUse" gradientTransform="translate(19.0173 27.5213) rotate(180) scale(3.37885 3.39739)">
<stop stop-color="#6BCBE2"/>
<stop offset="1" stop-color="#327B80"/>
</radialGradient>
<radialGradient id="paint40_radial_1_372" cx="0" cy="0" r="1" gradientUnits="userSpaceOnUse" gradientTransform="translate(23.101 16.2256) rotate(180) scale(24.275 24.4082)">
<stop stop-color="#6BCBE2"/>
<stop offset="1" stop-color="#327B80"/>
</radialGradient>
<radialGradient id="paint41_radial_1_372" cx="0" cy="0" r="1" gradientUnits="userSpaceOnUse" gradientTransform="translate(22.2239 15.8449) rotate(180) scale(22.4298 22.5529)">
<stop stop-color="#6BCBE2"/>
<stop offset="1" stop-color="#327B80"/>
</radialGradient>
<radialGradient id="paint42_radial_1_372" cx="0" cy="0" r="1" gradientUnits="userSpaceOnUse" gradientTransform="translate(45.3532 37.1592) scale(79.8511 80.2893)">
<stop stop-color="#6BCBE2"/>
<stop offset="1" stop-color="#327B80"/>
</radialGradient>
<linearGradient id="paint43_linear_1_372" x1="0.00567914" y1="20.7217" x2="46.9645" y2="20.7217" gradientUnits="userSpaceOnUse">
<stop stop-color="#107980"/>
<stop offset="1" stop-color="#86D3E5"/>
</linearGradient>
<radialGradient id="paint44_radial_1_372" cx="0" cy="0" r="1" gradientUnits="userSpaceOnUse" gradientTransform="translate(23.4843 31.9643) scale(15.6386 15.7244)">
<stop stop-color="#6BCBE2"/>
<stop offset="1" stop-color="#327B80"/>
</radialGradient>
<radialGradient id="paint45_radial_1_372" cx="0" cy="0" r="1" gradientUnits="userSpaceOnUse" gradientTransform="translate(2.66964 10.6451) scale(25.3917 25.531)">
<stop stop-color="#6BCBE2"/>
<stop offset="1" stop-color="#327B80"/>
</radialGradient>
<radialGradient id="paint46_radial_1_372" cx="0" cy="0" r="1" gradientUnits="userSpaceOnUse" gradientTransform="translate(3.52743 5.67677) scale(13.5633 13.6378)">
<stop stop-color="#6BCBE2"/>
<stop offset="1" stop-color="#327B80"/>
</radialGradient>
<radialGradient id="paint47_radial_1_372" cx="0" cy="0" r="1" gradientUnits="userSpaceOnUse" gradientTransform="translate(44.2936 10.6451) rotate(180) scale(25.3917 25.531)">
<stop stop-color="#6BCBE2"/>
<stop offset="1" stop-color="#327B80"/>
</radialGradient>
<radialGradient id="paint48_radial_1_372" cx="0" cy="0" r="1" gradientUnits="userSpaceOnUse" gradientTransform="translate(43.432 5.67677) rotate(180) scale(13.5633 13.6378)">
<stop stop-color="#6BCBE2"/>
<stop offset="1" stop-color="#327B80"/>
</radialGradient>
<clipPath id="clip0_1_372">
<rect width="138" height="37" fill="white" transform="translate(62 1)"/>
</clipPath>
<clipPath id="clip1_1_372">
<rect width="46.9636" height="41" fill="white"/>
</clipPath>
</defs>
</svg>
