<svg width="37" height="32" viewBox="0 0 37 32" fill="none" xmlns="http://www.w3.org/2000/svg">
<g clip-path="url(#clip0_74_2065)">
<path d="M29.7247 4.82184L29.4113 5.00614L22.4976 9.02306L19.5902 10.7118L18.5216 11.3362L18.4952 11.3475L18.4725 11.3362L17.404 10.7118L14.4927 9.02306L7.58286 5.00614L7.26946 4.82184L5.40039 3.73486V17.8693L10.8566 21.0437V21.04L14.6891 23.0447V20.8707L7.58286 16.9629V13.2092L14.6853 17.1171V17.1133L14.6891 17.1171V14.9394L7.58286 11.0353V7.18009L10.3808 8.80491L12.2008 9.86556L17.404 12.8895V24.8463L18.4952 25.4819L19.5902 24.8463V12.8895L24.7934 9.86556L26.6134 8.80491L29.4113 7.18009V11.0353L22.3051 14.9394V17.1171L22.3089 17.1133V17.1171L29.4113 13.2092V16.9629L22.3051 20.8707V23.0447L26.1376 21.04V21.0437L31.5938 17.8693V3.73486L29.7247 4.82184Z" fill="url(#paint0_linear_74_2065)"/>
<path d="M22.3035 15.5787V17.1095L21.7031 16.7672V15.2365L22.3035 15.5787Z" fill="url(#paint1_radial_74_2065)"/>
<path d="M30.0107 6.83032V11.3776L29.4141 11.0315V7.17635L30.0107 6.83032Z" fill="url(#paint2_radial_74_2065)"/>
<path d="M29.4135 11.0352L30.0101 11.3774L28.8131 12.0695L22.3035 15.5824L21.7031 15.2364L28.8131 11.3774L29.4135 11.0352Z" fill="url(#paint3_radial_74_2065)"/>
<path d="M22.3035 20.8669V23.0446L21.7031 22.7023V20.5209L22.3035 20.8669Z" fill="url(#paint4_radial_74_2065)"/>
<path d="M30.0107 12.8594V16.6657L29.4141 16.3196V13.2016L30.0107 12.8594Z" fill="url(#paint5_radial_74_2065)"/>
<path d="M29.4135 16.3235L30.0101 16.6658L28.8131 17.3578L22.3035 20.8707L21.7031 20.5209L28.8131 16.6658L29.4135 16.3235Z" fill="url(#paint6_radial_74_2065)"/>
<path d="M14.6836 15.59V17.1208L15.284 16.7748V15.244L14.6836 15.59Z" fill="url(#paint7_radial_74_2065)"/>
<path d="M7.57812 7.17261V11.7199L8.17849 11.3738V7.51863L7.57812 7.17261Z" fill="url(#paint8_radial_74_2065)"/>
<path d="M8.17849 11.3774L7.57812 11.7197L8.77508 12.4118L14.6844 15.5937L15.2847 15.2439L8.77508 11.7197L8.17849 11.3774Z" fill="url(#paint9_radial_74_2065)"/>
<path d="M14.6836 20.8783V23.056L15.284 22.7099V20.5322L14.6836 20.8783Z" fill="url(#paint10_radial_74_2065)"/>
<path d="M7.57812 13.1979V17.0079L8.17849 16.6619V13.5439L7.57812 13.1979Z" fill="url(#paint11_radial_74_2065)"/>
<path d="M8.17849 16.6658L7.57812 17.008L8.77508 17.6963L14.6844 20.882L15.2847 20.5322L8.77508 17.008L8.17849 16.6658Z" fill="url(#paint12_radial_74_2065)"/>
<path d="M31.5938 3.73484H31.59L30.9972 3.39258L30.9934 3.39634L29.7927 4.08463L18.4952 10.6592L7.20149 4.08463L6.00076 3.39634L5.99698 3.39258L5.40417 3.73484H5.40039L5.40417 3.73861L17.9024 11.0052L17.8986 11.0089L18.4952 11.3474L19.0956 11.0089L19.088 11.0052L31.59 3.73861L31.5938 3.73484Z" fill="url(#paint13_radial_74_2065)"/>
<path d="M34.6022 1.72629V19.983L18.498 29.2392L2.40134 19.983V1.72629L-0.00390625 0.345947V21.3633L18.498 31.9999L36.9999 21.3633V0.345947L34.6022 1.72629Z" fill="url(#paint14_linear_74_2065)"/>
<path d="M35.1987 20.3291L19.087 29.5665L18.4866 29.9087L17.89 29.5665L1.80469 20.3291L2.40128 19.983L18.4866 29.2242L34.6021 19.983L35.1987 20.3291Z" fill="url(#paint15_radial_74_2065)"/>
<path d="M2.40128 1.03442V19.9606L1.80469 20.3292V1.37669L2.40128 1.03442Z" fill="url(#paint16_radial_74_2065)"/>
<path d="M2.40147 1.03432L1.80488 1.37659L0.0037759 0.342266H0L0.0037759 0.338505L0.596592 0L0.600367 0.00376117L1.80488 0.692055L2.40147 1.03432Z" fill="url(#paint17_radial_74_2065)"/>
<path d="M34.5957 1.03442V19.9606L35.1961 20.3292V1.37669L34.5995 1.03442H34.5957Z" fill="url(#paint18_radial_74_2065)"/>
<path d="M34.5977 1.03432L35.1942 1.37659L36.9954 0.342266H36.9991L36.9954 0.338505L36.3988 0L36.395 0.00376117L35.1942 0.692055L34.5977 1.03432Z" fill="url(#paint19_radial_74_2065)"/>
</g>
<defs>
<linearGradient id="paint0_linear_74_2065" x1="5.40039" y1="14.6084" x2="31.5938" y2="14.6084" gradientUnits="userSpaceOnUse">
<stop stop-color="#107980"/>
<stop offset="1" stop-color="#86D3E5"/>
</linearGradient>
<radialGradient id="paint1_radial_74_2065" cx="0" cy="0" r="1" gradientUnits="userSpaceOnUse" gradientTransform="translate(22.0052 15.9435) scale(2.00878 2.00094)">
<stop stop-color="#6BCBE2"/>
<stop offset="1" stop-color="#327B80"/>
</radialGradient>
<radialGradient id="paint2_radial_74_2065" cx="0" cy="0" r="1" gradientUnits="userSpaceOnUse" gradientTransform="translate(19.3853 6.19469) scale(19.7026 19.6258)">
<stop stop-color="#6BCBE2"/>
<stop offset="1" stop-color="#327B80"/>
</radialGradient>
<radialGradient id="paint3_radial_74_2065" cx="0" cy="0" r="1" gradientUnits="userSpaceOnUse" gradientTransform="translate(19.3054 6.4014) scale(19.0569 18.9826)">
<stop stop-color="#6BCBE2"/>
<stop offset="1" stop-color="#327B80"/>
</radialGradient>
<radialGradient id="paint4_radial_74_2065" cx="0" cy="0" r="1" gradientUnits="userSpaceOnUse" gradientTransform="translate(22.0052 21.4724) scale(2.66201 2.65162)">
<stop stop-color="#6BCBE2"/>
<stop offset="1" stop-color="#327B80"/>
</radialGradient>
<radialGradient id="paint5_radial_74_2065" cx="0" cy="0" r="1" gradientUnits="userSpaceOnUse" gradientTransform="translate(19.3853 12.3253) scale(19.1249 19.0503)">
<stop stop-color="#6BCBE2"/>
<stop offset="1" stop-color="#327B80"/>
</radialGradient>
<radialGradient id="paint6_radial_74_2065" cx="0" cy="0" r="1" gradientUnits="userSpaceOnUse" gradientTransform="translate(19.3054 11.6897) scale(19.0569 18.9826)">
<stop stop-color="#6BCBE2"/>
<stop offset="1" stop-color="#327B80"/>
</radialGradient>
<radialGradient id="paint7_radial_74_2065" cx="0" cy="0" r="1" gradientUnits="userSpaceOnUse" gradientTransform="translate(14.9819 15.9511) rotate(180) scale(2.00878 2.00094)">
<stop stop-color="#6BCBE2"/>
<stop offset="1" stop-color="#327B80"/>
</radialGradient>
<radialGradient id="paint8_radial_74_2065" cx="0" cy="0" r="1" gradientUnits="userSpaceOnUse" gradientTransform="translate(18.1997 6.53697) rotate(180) scale(19.7026 19.6258)">
<stop stop-color="#6BCBE2"/>
<stop offset="1" stop-color="#327B80"/>
</radialGradient>
<radialGradient id="paint9_radial_74_2065" cx="0" cy="0" r="1" gradientUnits="userSpaceOnUse" gradientTransform="translate(17.5087 7.07843) rotate(180) scale(17.6712 17.6023)">
<stop stop-color="#6BCBE2"/>
<stop offset="1" stop-color="#327B80"/>
</radialGradient>
<radialGradient id="paint10_radial_74_2065" cx="0" cy="0" r="1" gradientUnits="userSpaceOnUse" gradientTransform="translate(14.9819 21.48) rotate(180) scale(2.66201 2.65162)">
<stop stop-color="#6BCBE2"/>
<stop offset="1" stop-color="#327B80"/>
</radialGradient>
<radialGradient id="paint11_radial_74_2065" cx="0" cy="0" r="1" gradientUnits="userSpaceOnUse" gradientTransform="translate(18.1997 12.6638) rotate(180) scale(19.1249 19.0503)">
<stop stop-color="#6BCBE2"/>
<stop offset="1" stop-color="#327B80"/>
</radialGradient>
<radialGradient id="paint12_radial_74_2065" cx="0" cy="0" r="1" gradientUnits="userSpaceOnUse" gradientTransform="translate(17.5087 12.3668) rotate(180) scale(17.6712 17.6023)">
<stop stop-color="#6BCBE2"/>
<stop offset="1" stop-color="#327B80"/>
</radialGradient>
<radialGradient id="paint13_radial_74_2065" cx="0" cy="0" r="1" gradientUnits="userSpaceOnUse" gradientTransform="translate(35.7322 29.0024) scale(62.9102 62.6648)">
<stop stop-color="#6BCBE2"/>
<stop offset="1" stop-color="#327B80"/>
</radialGradient>
<linearGradient id="paint14_linear_74_2065" x1="0.00364554" y1="16.1729" x2="36.9999" y2="16.1729" gradientUnits="userSpaceOnUse">
<stop stop-color="#107980"/>
<stop offset="1" stop-color="#86D3E5"/>
</linearGradient>
<radialGradient id="paint15_radial_74_2065" cx="0" cy="0" r="1" gradientUnits="userSpaceOnUse" gradientTransform="translate(18.5017 24.9478) scale(12.3207 12.2727)">
<stop stop-color="#6BCBE2"/>
<stop offset="1" stop-color="#327B80"/>
</radialGradient>
<radialGradient id="paint16_radial_74_2065" cx="0" cy="0" r="1" gradientUnits="userSpaceOnUse" gradientTransform="translate(2.10298 8.30852) scale(20.0047 19.9267)">
<stop stop-color="#6BCBE2"/>
<stop offset="1" stop-color="#327B80"/>
</radialGradient>
<radialGradient id="paint17_radial_74_2065" cx="0" cy="0" r="1" gradientUnits="userSpaceOnUse" gradientTransform="translate(2.77906 4.43065) scale(10.6858 10.6441)">
<stop stop-color="#6BCBE2"/>
<stop offset="1" stop-color="#327B80"/>
</radialGradient>
<radialGradient id="paint18_radial_74_2065" cx="0" cy="0" r="1" gradientUnits="userSpaceOnUse" gradientTransform="translate(34.8978 8.30852) rotate(180) scale(20.0046 19.9267)">
<stop stop-color="#6BCBE2"/>
<stop offset="1" stop-color="#327B80"/>
</radialGradient>
<radialGradient id="paint19_radial_74_2065" cx="0" cy="0" r="1" gradientUnits="userSpaceOnUse" gradientTransform="translate(34.2163 4.43065) rotate(180) scale(10.6858 10.6441)">
<stop stop-color="#6BCBE2"/>
<stop offset="1" stop-color="#327B80"/>
</radialGradient>
<clipPath id="clip0_74_2065">
<rect width="37" height="32" fill="white"/>
</clipPath>
</defs>
</svg>
