<svg xmlns="http://www.w3.org/2000/svg" width="44" height="43" viewBox="0 0 44 43" fill="none">
<rect x="1.08383" y="1.08315" width="41.7345" height="41.1347" rx="3.5" transform="rotate(-0.318599 1.08383 1.08315)" fill="#F9F9F9" stroke="#066163"/>
<path d="M21.7423 21.036C24.4532 21.021 26.6579 18.8361 26.6431 16.1632C26.6282 13.4904 24.4126 11.3169 21.6883 11.332C18.9774 11.3471 16.786 13.5319 16.8009 16.218C16.8159 18.904 19.0313 21.0511 21.7423 21.036Z" fill="#066163"/>
<path d="M25.5984 22.8989L18.5607 22.938C15.4091 22.9555 12.8725 25.4978 12.8897 28.592L12.8946 29.4873C12.9017 30.7514 13.9624 31.7857 15.2445 31.7785L29.0128 31.702C30.2948 31.6949 31.344 30.6488 31.337 29.3848L31.332 28.5026C31.3148 25.3952 28.7367 22.8814 25.5984 22.8989Z" fill="#066163"/>
</svg>