<svg width="24" height="24" viewBox="0 0 24 24" fill="none" xmlns="http://www.w3.org/2000/svg">
<path d="M19.4989 3.75024H4.49885C3.25621 3.75024 2.24885 4.7576 2.24885 6.00024V19.5002C2.24885 20.7429 3.25621 21.7502 4.49885 21.7502H19.4989C20.7415 21.7502 21.7489 20.7429 21.7489 19.5002V6.00024C21.7489 4.7576 20.7415 3.75024 19.4989 3.75024Z" stroke="#066163" stroke-width="1.2" stroke-linejoin="round"/>
<path d="M5.99943 2.2504V3.76389" stroke="#066163" stroke-width="1.2" stroke-linecap="round" stroke-linejoin="round"/>
<path d="M17.9997 2.2504V3.76389" stroke="#066163" stroke-width="1.2" stroke-linecap="round" stroke-linejoin="round"/>
<path d="M21.7489 7.50009H2.24885" stroke="#066163" stroke-width="1.2" stroke-linecap="round" stroke-linejoin="round"/>
<path d="M14.2502 12.1879L16.2858 10.6877H16.5005V18.5638" stroke="#066163" stroke-width="1.00189" stroke-linecap="round" stroke-linejoin="round"/>
<path d="M8.99471 14.3763C9.42205 14.3763 10.2045 14.1755 10.7172 13.6506C10.8852 13.4831 11.0179 13.2836 11.1075 13.064C11.1972 12.8444 11.242 12.609 11.2393 12.3718C11.2393 11.1466 10.1796 10.5002 8.99283 10.5002C7.98897 10.5002 7.42043 11.0448 7.21731 11.3881" stroke="#066163" stroke-width="1.00189" stroke-linecap="round" stroke-linejoin="round"/>
<path d="M6.98463 17.542C7.21355 17.9299 7.90922 18.7541 9.04302 18.7541C10.3842 18.7541 11.4879 18.0064 11.4879 16.6986C11.4879 16.1066 11.3163 15.5727 10.9447 15.1942C10.3649 14.6012 9.47881 14.3742 8.99564 14.3742" stroke="#066163" stroke-width="1.00189" stroke-linecap="round" stroke-linejoin="round"/>
</svg>
