<svg width="16" height="16" viewBox="0 0 16 16" fill="none" xmlns="http://www.w3.org/2000/svg"> <path d="M4.14502 2.6075V1.0625" stroke="#1F1F1F" stroke-linecap="round" stroke-linejoin="round" /> <path d="M11.855 2.6075V1.0625" stroke="#1F1F1F" stroke-linecap="round" stroke-linejoin="round" /> <path d="M12.5375 1.83496H3.4625C2.135 1.83496 1.0625 2.90746 1.0625 4.23496V12.545C1.0625 13.8725 2.135 14.945 3.4625 14.945H12.545C13.8725 14.945 14.945 13.8725 14.945 12.545V4.23496C14.9375 2.90746 13.865 1.83496 12.5375 1.83496Z" stroke="#1F1F1F" stroke-linecap="round" stroke-linejoin="round" /> <path d="M1.0625 4.9248H14.9375" stroke="#1F1F1F" stroke-linecap="round" stroke-linejoin="round" /> <path d="M12.5 8C12.9142 8 13.25 7.66421 13.25 7.25C13.25 6.83579 12.9142 6.5 12.5 6.5C12.0858 6.5 11.75 6.83579 11.75 7.25C11.75 7.66421 12.0858 8 12.5 8Z" fill="#1F1F1F" /> <path d="M9.5 8C9.91421 8 10.25 7.66421 10.25 7.25C10.25 6.83579 9.91421 6.5 9.5 6.5C9.08579 6.5 8.75 6.83579 8.75 7.25C8.75 7.66421 9.08579 8 9.5 8Z" fill="#1F1F1F" /> <path d="M6.5 8C6.91421 8 7.25 7.66421 7.25 7.25C7.25 6.83579 6.91421 6.5 6.5 6.5C6.08579 6.5 5.75 6.83579 5.75 7.25C5.75 7.66421 6.08579 8 6.5 8Z" fill="#1F1F1F" /> <path d="M3.5 8C3.91421 8 4.25 7.66421 4.25 7.25C4.25 6.83579 3.91421 6.5 3.5 6.5C3.08579 6.5 2.75 6.83579 2.75 7.25C2.75 7.66421 3.08579 8 3.5 8Z" fill="#1F1F1F" /> <path d="M12.5 10.6177C12.9142 10.6177 13.25 10.2819 13.25 9.86768C13.25 9.45346 12.9142 9.11768 12.5 9.11768C12.0858 9.11768 11.75 9.45346 11.75 9.86768C11.75 10.2819 12.0858 10.6177 12.5 10.6177Z" fill="#1F1F1F" /> <path d="M9.5 10.6177C9.91421 10.6177 10.25 10.2819 10.25 9.86768C10.25 9.45346 9.91421 9.11768 9.5 9.11768C9.08579 9.11768 8.75 9.45346 8.75 9.86768C8.75 10.2819 9.08579 10.6177 9.5 10.6177Z" fill="#1F1F1F" /> <path d="M6.5 10.6177C6.91421 10.6177 7.25 10.2819 7.25 9.86768C7.25 9.45346 6.91421 9.11768 6.5 9.11768C6.08579 9.11768 5.75 9.45346 5.75 9.86768C5.75 10.2819 6.08579 10.6177 6.5 10.6177Z" fill="#1F1F1F" /> <path d="M3.5 10.6177C3.91421 10.6177 4.25 10.2819 4.25 9.86768C4.25 9.45346 3.91421 9.11768 3.5 9.11768C3.08579 9.11768 2.75 9.45346 2.75 9.86768C2.75 10.2819 3.08579 10.6177 3.5 10.6177Z" fill="#1F1F1F" /> <path d="M9.5 13.2275C9.91421 13.2275 10.25 12.8918 10.25 12.4775C10.25 12.0633 9.91421 11.7275 9.5 11.7275C9.08579 11.7275 8.75 12.0633 8.75 12.4775C8.75 12.8918 9.08579 13.2275 9.5 13.2275Z" fill="#1F1F1F" /> <path d="M6.5 13.2275C6.91421 13.2275 7.25 12.8918 7.25 12.4775C7.25 12.0633 6.91421 11.7275 6.5 11.7275C6.08579 11.7275 5.75 12.0633 5.75 12.4775C5.75 12.8918 6.08579 13.2275 6.5 13.2275Z" fill="#1F1F1F" /> <path d="M3.5 13.2275C3.91421 13.2275 4.25 12.8918 4.25 12.4775C4.25 12.0633 3.91421 11.7275 3.5 11.7275C3.08579 11.7275 2.75 12.0633 2.75 12.4775C2.75 12.8918 3.08579 13.2275 3.5 13.2275Z" fill="#1F1F1F" /> </svg>