<svg width="25" height="24" viewBox="0 0 25 24" fill="none" xmlns="http://www.w3.org/2000/svg">
<path d="M11.5257 2H9.51334C4.48254 2 2.47021 4 2.47021 9V15C2.47021 20 4.48254 22 9.51334 22H15.5503C20.5811 22 22.5934 20 22.5934 15V13" stroke="#066163" stroke-width="1.5" stroke-linecap="round" stroke-linejoin="round"/>
<path d="M16.5967 3.02001L8.66819 10.9C8.36634 11.2 8.06449 11.79 8.00412 12.22L7.57147 15.23C7.41049 16.32 8.18523 17.08 9.28195 16.93L12.3105 16.5C12.7331 16.44 13.3267 16.14 13.6386 15.84L21.5672 7.96001C22.9355 6.60001 23.5795 5.02001 21.5672 3.02001C19.5548 1.02001 17.9651 1.66001 16.5967 3.02001Z" stroke="#066163" stroke-width="1.5" stroke-miterlimit="10" stroke-linecap="round" stroke-linejoin="round"/>
<path d="M15.46 4.1499C16.1341 6.5399 18.0156 8.4099 20.4304 9.0899" stroke="#066163" stroke-width="1.5" stroke-miterlimit="10" stroke-linecap="round" stroke-linejoin="round"/>
</svg>
