<svg width="24" height="24" viewBox="0 0 24 24" fill="none" xmlns="http://www.w3.org/2000/svg">
<path d="M12.01 7.81998C12.01 9.56861 10.5886 10.99 8.84 10.99C7.09137 10.99 5.67001 9.56861 5.67001 7.81998C5.67001 6.07135 7.09137 4.64999 8.84 4.64999C10.5886 4.64999 12.01 6.07136 12.01 7.81998Z" fill="white" stroke="#066163" stroke-width="1.2"/>
<path d="M16.16 17.48V19.2C16.16 19.61 15.83 19.95 15.41 19.95H2.75C2.34 19.95 2 19.61 2 19.2V17.48C2 15.07 3.96 13.11 6.37 13.11H11.79C12.28 13.11 12.75 13.19 13.19 13.35C13.19 13.35 13.19 13.34 13.2 13.35C14.92 13.93 16.16 15.56 16.16 17.48Z" fill="#066163"/>
<path d="M12.985 13.9139L13.2628 14.0149C14.6119 14.583 15.56 15.9209 15.56 17.48V19.2C15.56 19.2838 15.4934 19.35 15.41 19.35H2.75C2.71382 19.35 2.67629 19.3352 2.64551 19.3045C2.61474 19.2737 2.6 19.2362 2.6 19.2V17.48C2.6 15.4014 4.29137 13.71 6.37 13.71H11.79C12.2141 13.71 12.6144 13.7791 12.985 13.9139Z" fill="white" stroke="#066163" stroke-width="1.2"/>
<path d="M21.4 18.03H18.26V17.48C18.26 16.3668 17.9734 15.3088 17.4774 14.394L17.4775 14.394L17.4737 14.3873C17.3599 14.1835 17.2376 13.9835 17.105 13.79H18.57C18.6908 13.79 18.7305 13.792 18.7623 13.7983L18.7978 13.8055L18.834 13.8082C18.9334 13.8159 19.0337 13.8312 19.1351 13.8546L19.135 13.8547L19.1464 13.8571C19.7664 13.9877 20.3151 14.3327 20.7284 14.8051L20.7284 14.8051L20.7315 14.8086C20.7547 14.8346 20.7768 14.8606 20.798 14.8866L20.9135 15.0569C21.072 15.2904 21.1929 15.5336 21.2735 15.7964C21.3035 15.9066 21.3254 15.9892 21.3397 16.0673L21.3425 16.0832L21.3463 16.099C21.3828 16.2525 21.4 16.424 21.4 16.62V18.03L21.4 18.03ZM21.41 15.31C21.4197 15.31 21.4161 15.3102 21.4051 15.31H21.41ZM20.9856 14.2958C20.9873 14.2941 20.9883 14.2931 20.9883 14.2931C20.9884 14.2931 20.9876 14.2939 20.9857 14.2957L20.9856 14.2958Z" fill="white" stroke="#066163" stroke-width="1.2"/>
<path d="M18.77 8.45997C18.77 9.77993 17.7 10.85 16.38 10.85C15.0601 10.85 13.99 9.77993 13.99 8.45997C13.99 7.14001 15.0601 6.06997 16.38 6.06997C17.7 6.06997 18.77 7.14001 18.77 8.45997Z" fill="white" stroke="#066163" stroke-width="1.2"/>
</svg>
