<svg width="234" height="51" viewBox="0 0 234 51" fill="none" xmlns="http://www.w3.org/2000/svg">
<path d="M54.691 2.74528V31.8432L29.2425 46.6132L3.79755 31.8608V2.74528L0.00354004 0.54834V34.0436L29.2425 50.9965L58.4815 34.0436V0.551881L54.691 2.74528Z" fill="url(#paint0_linear_13_100)"/>
<path d="M46.9832 7.68747L46.49 7.97403L35.5624 14.3773L30.9616 17.0731L29.2742 18.0637L29.239 18.0849L29.2003 18.0637L27.5128 17.0731L22.9121 14.3773L11.9845 7.97403L11.4913 7.68747L8.53217 5.95398V28.4787L17.1559 33.5342V33.5306L23.2186 36.7252V33.2618L11.9845 27.0353V21.0495L23.2151 27.2759H23.2186V23.8089L11.9845 17.5861V11.441L16.4056 14.0306L19.2872 15.7217L27.5128 20.5401V39.5978L29.239 40.6061L30.9616 39.5978V20.5401L39.1873 15.7217L42.0689 14.0306L46.49 11.441V17.5861L35.2559 23.8089V27.2759H35.2594L46.49 21.0495V27.0353L35.2559 33.2618V36.7252L41.3186 33.5306V33.5342L49.9423 28.4787V5.95398L46.9832 7.68747Z" fill="url(#paint1_linear_13_100)"/>
<path d="M35.2594 24.8314V27.2689L34.3118 26.7205V24.2795L35.2594 24.8314Z" fill="url(#paint2_radial_13_100)"/>
<path d="M47.4412 10.8856V18.1344L46.4935 17.5826V11.4375L47.4412 10.8856Z" fill="url(#paint3_radial_13_100)"/>
<path d="M46.4935 17.5861L47.4411 18.1344L45.5459 19.2346L35.2559 24.8349L34.3118 24.2795L45.5459 18.1344L46.4935 17.5861Z" fill="url(#paint4_radial_13_100)"/>
<path d="M35.2594 33.2582V36.7288L34.3118 36.1769V32.7064L35.2594 33.2582Z" fill="url(#paint5_radial_13_100)"/>
<path d="M47.4412 20.4905V26.5613L46.4935 26.0094V21.0424L47.4412 20.4905Z" fill="url(#paint6_radial_13_100)"/>
<path d="M46.4935 26.0129L47.4411 26.5613L45.5459 27.6615L35.2559 33.2618L34.3118 32.7063L45.5459 26.5613L46.4935 26.0129Z" fill="url(#paint7_radial_13_100)"/>
<path d="M23.2115 24.8455V27.283L24.1592 26.7347V24.2936L23.2115 24.8455Z" fill="url(#paint8_radial_13_100)"/>
<path d="M11.9774 11.4304V18.6792L12.925 18.1238V11.9823L11.9774 11.4304Z" fill="url(#paint9_radial_13_100)"/>
<path d="M12.925 18.1309L11.9774 18.6793L13.8727 19.7795L23.2115 24.8491L24.1592 24.2937L13.8727 18.6793L12.925 18.1309Z" fill="url(#paint10_radial_13_100)"/>
<path d="M23.2115 33.2724V36.7429L24.1592 36.191V32.7205L23.2115 33.2724Z" fill="url(#paint11_radial_13_100)"/>
<path d="M11.9774 21.0354V27.1062L12.925 26.5543V21.5873L11.9774 21.0354Z" fill="url(#paint12_radial_13_100)"/>
<path d="M12.925 26.5578L11.9774 27.1062L13.8727 28.2064L23.2115 33.276L24.1592 32.7205L13.8727 27.1062L12.925 26.5578Z" fill="url(#paint13_radial_13_100)"/>
<path d="M49.9423 5.95399L49.9353 5.95045L48.9982 5.40918L48.9912 5.41272L47.0924 6.50942L29.239 16.9882L11.3821 6.50942L9.48331 5.41272L9.47979 5.40918L8.53921 5.95045L8.53217 5.95399L8.53921 5.95753L28.2984 17.5365L28.2914 17.5401L29.239 18.0884L30.1831 17.5401L30.1761 17.5365L49.9353 5.95753L49.9423 5.95399Z" fill="url(#paint14_linear_13_100)"/>
<path d="M55.6386 32.3986L30.169 47.1226L29.2249 47.6674L28.2808 47.1191L2.84991 32.3986L3.79754 31.8467L29.2249 46.5743L54.6945 31.8467L55.6386 32.3986Z" fill="url(#paint15_linear_13_100)"/>
<path d="M3.79754 1.64502V31.8113L2.84991 32.4021V2.19337L3.79754 1.64856V1.64502Z" fill="url(#paint16_radial_13_100)"/>
<path d="M3.79755 1.64858L2.84992 2.1934L0.00704554 0.548349L0 0.544811L0.00704554 0.541274L0.944102 0L0.951148 0.00353774L2.84992 1.10024L3.79755 1.64858Z" fill="url(#paint17_linear_13_100)"/>
<path d="M54.6875 1.64502V31.8113L55.6351 32.4021V2.19337L54.691 1.64856L54.6875 1.64502Z" fill="url(#paint18_linear_13_100)"/>
<path d="M54.691 1.64858L55.6351 2.1934L58.4815 0.548349L58.485 0.544811L58.4815 0.541274L57.5409 0L57.5339 0.00353774L55.6351 1.10024L54.691 1.64858Z" fill="url(#paint19_linear_13_100)"/>
<path d="M67.6055 46.8432L68.31 46.0932C68.9915 46.7584 69.8997 47.1379 70.8499 47.1545C72.097 47.1545 72.9636 46.5779 72.9636 45.7394C72.9636 45.0319 72.5127 44.6781 71.5122 44.533L70.156 44.3455C68.5989 44.1262 67.8485 43.4222 67.8485 42.2017C67.8485 40.8856 69.0639 39.9128 70.7795 39.9128C71.89 39.904 72.9715 40.2689 73.8514 40.9493L73.2454 41.7312C72.5148 41.1821 71.6319 40.8755 70.7196 40.8538C69.6416 40.8538 68.9089 41.3845 68.9089 42.1521C68.9089 42.8597 69.3316 43.2135 70.3603 43.3444L71.7166 43.5319C73.2771 43.7512 74.0557 44.4552 74.0557 45.6757C74.0557 47.0413 72.6818 48.0743 70.8852 48.0743C69.6757 48.0984 68.5026 47.6581 67.6055 46.8432Z" fill="black"/>
<path d="M75.3591 40.0648H76.5111V40.9245C76.7943 40.5947 77.147 40.3322 77.5436 40.156C77.9402 39.9798 78.3708 39.8943 78.8044 39.9056C79.3051 39.892 79.7998 40.0168 80.2347 40.2664C80.6696 40.5159 81.0278 40.8806 81.2703 41.3207C81.5572 40.8714 81.9554 40.5046 82.4261 40.2565C82.8967 40.0084 83.4235 39.8875 83.9547 39.9056C85.6526 39.9056 86.8222 41.1439 86.8222 42.9446V47.8974H85.6843V43.1816C85.6843 41.7877 84.9058 40.9245 83.6587 40.9245C83.229 40.9276 82.8084 41.0489 82.4425 41.2753C82.0767 41.5018 81.7797 41.8246 81.5838 42.2087C81.6339 42.4508 81.6599 42.6973 81.6613 42.9446V47.8974H80.5129V43.1816C80.5129 41.7877 79.7344 40.9245 78.5014 40.9245C78.0976 40.9209 77.7001 41.0247 77.3493 41.2254C76.9985 41.4261 76.7068 41.7166 76.504 42.0672V47.908H75.3521L75.3591 40.0648Z" fill="black"/>
<path d="M88.3335 45.6863C88.3335 44.2146 89.5348 43.2912 91.4511 43.2912C92.2464 43.2853 93.032 43.467 93.7445 43.8219V42.7889C93.7445 41.5365 93.0399 40.8927 91.6695 40.8927C90.8091 40.9154 89.9678 41.1525 89.2212 41.5825L88.7844 40.691C89.7079 40.1902 90.7365 39.9162 91.7858 39.8915C93.7656 39.8915 94.8753 40.8644 94.8753 42.6191V47.8938H93.7515V47.1262C93.0519 47.7348 92.151 48.0591 91.2257 48.0354C89.503 48.0495 88.3335 47.0943 88.3335 45.6863ZM91.4194 47.1403C91.8482 47.1584 92.2761 47.0872 92.6762 46.9314C93.0763 46.7755 93.44 46.5383 93.7445 46.2346V44.7629C93.0747 44.3211 92.2835 44.102 91.4829 44.1368C90.2358 44.1368 89.4397 44.7311 89.4397 45.6544C89.4397 46.5778 90.2499 47.1403 91.4335 47.1403H91.4194Z" fill="black"/>
<path d="M96.8022 40.0648H97.9542V41.1757C98.1666 40.7816 98.4825 40.4535 98.8676 40.2271C99.2526 40.0007 99.6921 39.8846 100.138 39.8915C100.387 39.8849 100.635 39.9221 100.871 40.0012V41.0625C100.611 40.9707 100.337 40.9229 100.061 40.921C99.0955 40.921 98.3593 41.4835 97.9471 42.5342V47.9045H96.7952L96.8022 40.0648Z" fill="black"/>
<path d="M103.164 46.171V41.0519H101.48V40.0648H103.164V38.0766L104.302 37.7759V40.0648H106.659V41.0519H104.302V45.8738C104.302 46.7193 104.654 47.0483 105.503 47.0483C105.893 47.0619 106.281 46.9919 106.641 46.8432V47.862C106.198 48.0026 105.736 48.0718 105.271 48.0672C103.915 48.0672 103.164 47.4092 103.164 46.171Z" fill="black"/>
<path d="M111.242 36.9481L112.397 36.6828V40.8927C113.079 40.258 113.98 39.9153 114.909 39.9375C115.433 39.9369 115.952 40.0417 116.435 40.2457C116.918 40.4497 117.356 40.7488 117.722 41.1254C118.088 41.5019 118.375 41.9483 118.567 42.4382C118.758 42.9281 118.85 43.4515 118.837 43.9776C118.851 44.5058 118.759 45.0315 118.566 45.5233C118.374 46.0152 118.085 46.4632 117.717 46.841C117.35 47.2187 116.91 47.5185 116.424 47.7224C115.939 47.9264 115.418 48.0304 114.892 48.0283C113.976 48.0262 113.089 47.7048 112.383 47.1191V47.901H111.242V36.9481ZM117.699 43.9953C117.714 43.603 117.65 43.2117 117.511 42.8447C117.372 42.4778 117.161 42.1426 116.891 41.8591C116.62 41.5756 116.296 41.3496 115.937 41.1946C115.577 41.0395 115.191 40.9585 114.8 40.9564C114.343 40.9454 113.89 41.0383 113.474 41.2282C113.058 41.4181 112.69 41.7001 112.397 42.0531V45.9446C112.696 46.2878 113.066 46.5608 113.481 46.7442C113.896 46.9276 114.347 47.017 114.8 47.0059C115.189 47.0071 115.575 46.9293 115.934 46.7772C116.293 46.6251 116.617 46.4017 116.888 46.1206C117.159 45.8394 117.37 45.5063 117.51 45.1411C117.649 44.7759 117.713 44.3861 117.699 43.9953Z" fill="black"/>
<path d="M120.412 45.0283V40.0755H121.553V44.8055C121.553 46.1958 122.395 47.059 123.734 47.059C124.169 47.0693 124.598 46.9614 124.977 46.7465C125.356 46.5316 125.67 46.2179 125.886 45.8385V40.0649H127.042V47.908H125.886V47.0024C125.582 47.3511 125.205 47.6273 124.781 47.8109C124.358 47.9945 123.899 48.0809 123.438 48.0637C123.035 48.0845 122.633 48.0203 122.257 47.8751C121.88 47.73 121.539 47.5072 121.253 47.2211C120.968 46.9351 120.746 46.5921 120.601 46.2144C120.456 45.8367 120.392 45.4326 120.412 45.0283Z" fill="black"/>
<path d="M128.211 46.8432L128.916 46.0932C129.599 46.758 130.508 47.1373 131.459 47.1545C132.706 47.1545 133.573 46.5778 133.573 45.7394C133.573 45.0318 133.118 44.6781 132.122 44.533L130.765 44.3455C129.205 44.1262 128.458 43.4222 128.458 42.2017C128.458 40.8856 129.673 39.9127 131.389 39.9127C132.499 39.9045 133.58 40.2693 134.461 40.9493L133.851 41.7311C133.121 41.1817 132.238 40.875 131.325 40.8538C130.269 40.8538 129.518 41.3844 129.518 42.1521C129.518 42.8597 129.937 43.2134 130.966 43.3443L132.326 43.5318C133.883 43.7512 134.665 44.4552 134.665 45.6757C134.665 47.0413 133.291 48.0743 131.494 48.0743C130.284 48.0993 129.109 47.6589 128.211 46.8432Z" fill="black"/>
<path d="M135.76 37.7689C135.761 37.5618 135.844 37.3635 135.99 37.2171C136.135 37.0706 136.333 36.988 136.539 36.987C136.642 36.9861 136.743 37.0057 136.838 37.0446C136.933 37.0836 137.019 37.1411 137.092 37.2139C137.164 37.2867 137.221 37.3733 137.26 37.4686C137.299 37.5639 137.318 37.6659 137.318 37.7689C137.318 37.9766 137.236 38.1758 137.09 38.323C136.944 38.4702 136.746 38.5533 136.539 38.5542C136.333 38.5506 136.137 38.4666 135.991 38.32C135.846 38.1734 135.763 37.9757 135.76 37.7689ZM135.961 40.0578H137.117V47.901H135.961V40.0578Z" fill="black"/>
<path d="M139.083 40.0649H140.234V40.9882C140.538 40.6329 140.917 40.3509 141.344 40.1635C141.771 39.976 142.235 39.8879 142.7 39.9057C143.102 39.8868 143.503 39.9527 143.878 40.099C144.252 40.2453 144.592 40.4688 144.876 40.7551C145.159 41.0414 145.38 41.3841 145.523 41.7612C145.667 42.1383 145.73 42.5415 145.709 42.9446V47.8974H144.571V43.1816C144.571 41.7878 143.729 40.9245 142.387 40.9245C141.954 40.915 141.526 41.0218 141.147 41.2339C140.769 41.446 140.454 41.7557 140.234 42.1309V47.908H139.083V40.0649Z" fill="black"/>
<path d="M147.283 43.9776C147.269 43.4572 147.357 42.939 147.543 42.4531C147.729 41.9673 148.01 41.5235 148.368 41.1475C148.727 40.7716 149.157 40.471 149.632 40.2632C150.107 40.0555 150.619 39.9448 151.137 39.9375C153.209 39.9375 154.833 41.7064 154.833 43.9776V44.3314H148.421C148.485 45.0683 148.822 45.7544 149.365 46.2537C149.909 46.7529 150.619 47.029 151.356 47.0271C152.132 47.0436 152.892 46.794 153.508 46.3196L154.213 47.0873C153.379 47.735 152.35 48.077 151.296 48.0566C150.764 48.0605 150.236 47.9573 149.744 47.753C149.253 47.5488 148.807 47.2477 148.433 46.8675C148.059 46.4872 147.764 46.0356 147.567 45.5393C147.369 45.043 147.273 44.5119 147.283 43.9776ZM153.677 43.4151C153.477 42.0212 152.399 40.9387 151.106 40.9387C149.749 40.9387 148.671 41.9576 148.453 43.4151H153.677Z" fill="black"/>
<path d="M155.721 46.8432L156.425 46.0932C157.107 46.7584 158.015 47.1379 158.965 47.1545C160.212 47.1545 161.079 46.5779 161.079 45.7394C161.079 45.0319 160.628 44.6781 159.627 44.533L158.271 44.3455C156.714 44.1262 155.964 43.4222 155.964 42.2017C155.964 40.8856 157.179 39.9128 158.895 39.9128C160.005 39.904 161.086 40.2689 161.966 40.9493L161.36 41.7312C160.63 41.1821 159.747 40.8755 158.835 40.8538C157.757 40.8538 157.024 41.3845 157.024 42.1521C157.024 42.8597 157.447 43.2135 158.475 43.3444L159.832 43.5319C161.392 43.7512 162.171 44.4552 162.171 45.6757C162.171 47.0413 160.797 48.0743 159 48.0743C157.791 48.0984 156.618 47.6581 155.721 46.8432Z" fill="black"/>
<path d="M162.678 46.8432L163.383 46.0932C164.065 46.7586 164.975 47.138 165.926 47.1545C167.173 47.1545 168.04 46.5778 168.04 45.7394C168.04 45.0318 167.585 44.6781 166.588 44.533L165.232 44.3455C163.671 44.1262 162.925 43.4222 162.925 42.2017C162.925 40.8856 164.14 39.9127 165.856 39.9127C166.969 39.9045 168.053 40.2706 168.934 40.9528L168.325 41.7347C167.595 41.1852 166.712 40.8785 165.799 40.8573C164.742 40.8573 163.992 41.388 163.992 42.1557C163.992 42.8632 164.411 43.217 165.44 43.3479L166.8 43.5354C168.357 43.7547 169.135 44.4587 169.135 45.6792C169.135 47.0448 167.765 48.0778 165.965 48.0778C164.752 48.1043 163.576 47.6623 162.678 46.8432Z" fill="black"/>
<path d="M172.986 46.8432L173.69 46.0932C174.373 46.758 175.282 47.1373 176.234 47.1545C177.481 47.1545 178.347 46.5778 178.347 45.7394C178.347 45.0318 177.893 44.6781 176.896 44.533L175.54 44.3455C173.979 44.1262 173.232 43.4222 173.232 42.2017C173.232 40.8856 174.448 39.9127 176.163 39.9127C177.274 39.9045 178.355 40.2693 179.235 40.9493L178.629 41.7311C177.897 41.1816 177.013 40.8749 176.1 40.8538C175.025 40.8538 174.293 41.3844 174.293 42.1521C174.293 42.8597 174.712 43.2134 175.744 43.3443L177.1 43.5318C178.657 43.7512 179.439 44.4552 179.439 45.6757C179.439 47.0413 178.065 48.0743 176.269 48.0743C175.058 48.0993 173.884 47.6589 172.986 46.8432Z" fill="black"/>
<path d="M180.457 43.9953C180.448 43.4644 180.543 42.9368 180.739 42.4435C180.934 41.9501 181.225 41.5007 181.596 41.1216C181.966 40.7426 182.408 40.4414 182.895 40.2356C183.383 40.0299 183.906 39.9237 184.435 39.9234C184.965 39.9219 185.489 40.0266 185.979 40.2315C186.468 40.4364 186.911 40.7373 187.283 41.1166C187.655 41.4958 187.947 41.9458 188.143 42.4401C188.34 42.9345 188.436 43.4632 188.426 43.9953C188.435 44.5272 188.339 45.0557 188.142 45.5499C187.946 46.044 187.653 46.4938 187.282 46.8729C186.91 47.2521 186.467 47.553 185.978 47.7581C185.489 47.9631 184.964 48.0682 184.435 48.0672C183.906 48.0664 183.383 47.9599 182.896 47.754C182.408 47.5481 181.967 47.2468 181.597 46.8679C181.227 46.4889 180.935 46.0397 180.74 45.5466C180.544 45.0534 180.448 44.526 180.457 43.9953ZM187.302 43.9953C187.317 43.6053 187.255 43.2163 187.118 42.851C186.981 42.4857 186.773 42.1515 186.506 41.8681C186.239 41.5846 185.918 41.3577 185.562 41.2005C185.207 41.0433 184.823 40.9591 184.435 40.9528C184.047 40.9605 183.666 41.0457 183.312 41.2033C182.958 41.3609 182.638 41.5878 182.373 41.8708C182.107 42.1537 181.9 42.487 181.764 42.8512C181.628 43.2154 181.566 43.6031 181.581 43.9918C181.567 44.3803 181.629 44.7678 181.765 45.1317C181.901 45.4957 182.108 45.8288 182.374 46.1117C182.639 46.3945 182.958 46.6215 183.312 46.7792C183.666 46.937 184.048 47.0225 184.435 47.0307C184.823 47.0243 185.205 46.9403 185.561 46.7836C185.916 46.6269 186.236 46.4006 186.503 46.1179C186.77 45.8352 186.979 45.5019 187.116 45.1374C187.253 44.7729 187.316 44.3846 187.302 43.9953Z" fill="black"/>
<path d="M190.046 36.9481L191.202 36.6828V47.908H190.046V36.9481Z" fill="black"/>
<path d="M193.136 45.0283V40.0755H194.274V44.8055C194.274 46.1958 195.116 47.059 196.458 47.059C196.893 47.069 197.322 46.9608 197.701 46.746C198.08 46.5312 198.394 46.2176 198.61 45.8385V40.0649H199.762V47.908H198.61V47.0024C198.306 47.3509 197.929 47.627 197.505 47.8106C197.082 47.9942 196.623 48.0806 196.162 48.0637C195.759 48.0845 195.357 48.0203 194.981 47.8751C194.604 47.73 194.263 47.5072 193.977 47.2211C193.692 46.9351 193.47 46.5921 193.325 46.2144C193.18 45.8367 193.116 45.4326 193.136 45.0283Z" fill="black"/>
<path d="M202.697 46.171V41.0519H201.013V40.0648H202.697V38.0766L203.834 37.7759V40.0648H206.188V41.0519H203.834V45.8738C203.834 46.7193 204.187 47.0483 205.036 47.0483C205.425 47.0619 205.813 46.9919 206.174 46.8432V47.862C205.729 48.0028 205.266 48.072 204.8 48.0672C203.458 48.0672 202.697 47.4092 202.697 46.171Z" fill="black"/>
<path d="M207.22 37.7689C207.22 37.5615 207.302 37.3627 207.448 37.216C207.594 37.0694 207.792 36.987 207.998 36.987C208.101 36.9861 208.203 37.0057 208.297 37.0446C208.392 37.0836 208.479 37.1411 208.551 37.2139C208.624 37.2867 208.681 37.3733 208.72 37.4686C208.758 37.5639 208.778 37.6659 208.777 37.7689C208.777 37.9766 208.695 38.1758 208.549 38.323C208.403 38.4702 208.205 38.5533 207.998 38.5542C207.793 38.5506 207.596 38.4666 207.451 38.32C207.305 38.1734 207.223 37.9757 207.22 37.7689ZM207.421 40.0578H208.576V47.901H207.421V40.0578Z" fill="black"/>
<path d="M210.183 43.9953C210.173 43.4632 210.269 42.9345 210.465 42.4401C210.661 41.9458 210.954 41.4958 211.326 41.1166C211.697 40.7373 212.141 40.4364 212.63 40.2315C213.119 40.0266 213.644 39.9219 214.174 39.9234C214.704 39.9219 215.229 40.0266 215.718 40.2315C216.207 40.4364 216.65 40.7373 217.022 41.1166C217.394 41.4958 217.686 41.9458 217.883 42.4401C218.079 42.9345 218.175 43.4632 218.165 43.9953C218.175 44.5272 218.078 45.0557 217.882 45.5499C217.685 46.044 217.393 46.4938 217.021 46.8729C216.649 47.2521 216.206 47.553 215.717 47.7581C215.228 47.9631 214.704 48.0682 214.174 48.0672C213.644 48.0682 213.119 47.9631 212.631 47.7581C212.142 47.553 211.698 47.2521 211.327 46.8729C210.955 46.4938 210.663 46.044 210.466 45.5499C210.27 45.0557 210.173 44.5272 210.183 43.9953ZM217.027 43.9953C217.042 43.6068 216.979 43.2193 216.843 42.8553C216.707 42.4913 216.5 42.1582 216.235 41.8754C215.969 41.5925 215.65 41.3656 215.296 41.2078C214.942 41.05 214.561 40.9645 214.174 40.9564C213.787 40.9641 213.405 41.0492 213.051 41.2068C212.697 41.3644 212.378 41.5914 212.112 41.8743C211.846 42.1573 211.639 42.4906 211.504 42.8547C211.368 43.2189 211.305 43.6067 211.32 43.9953C211.306 44.3838 211.368 44.7713 211.505 45.1353C211.641 45.4992 211.847 45.8324 212.113 46.1152C212.379 46.3981 212.698 46.625 213.051 46.7828C213.405 46.9405 213.787 47.026 214.174 47.0342C214.561 47.026 214.942 46.9405 215.296 46.7828C215.65 46.625 215.969 46.3981 216.235 46.1152C216.5 45.8324 216.707 45.4992 216.843 45.1353C216.979 44.7713 217.042 44.3838 217.027 43.9953Z" fill="black"/>
<path d="M219.772 40.0649H220.927V40.9882C221.23 40.6329 221.61 40.3509 222.037 40.1635C222.464 39.976 222.927 39.8879 223.393 39.9057C223.795 39.8863 224.196 39.9518 224.571 40.0979C224.946 40.2439 225.287 40.4673 225.571 40.7537C225.854 41.04 226.075 41.3829 226.219 41.7603C226.363 42.1377 226.426 42.5411 226.405 42.9446V47.8974H225.264V43.1816C225.264 41.7877 224.422 40.9245 223.083 40.9245C222.65 40.9143 222.221 41.0208 221.843 41.2329C221.464 41.4451 221.149 41.7551 220.931 42.1309V47.908H219.775L219.772 40.0649Z" fill="black"/>
<path d="M227.539 46.8432L228.244 46.0932C228.927 46.758 229.836 47.1373 230.787 47.1545C232.034 47.1545 232.901 46.5778 232.901 45.7394C232.901 45.0318 232.446 44.6781 231.45 44.533L230.093 44.3455C228.533 44.1262 227.786 43.4222 227.786 42.2017C227.786 40.8856 229.001 39.9127 230.717 39.9127C231.827 39.9045 232.908 40.2693 233.789 40.9493L233.183 41.7311C232.451 41.1816 231.567 40.8749 230.653 40.8538C229.597 40.8538 228.846 41.3844 228.846 42.1521C228.846 42.8597 229.265 43.2134 230.298 43.3443L231.654 43.5318C233.211 43.7512 233.993 44.4552 233.993 45.6757C233.993 47.0413 232.619 48.0743 230.822 48.0743C229.612 48.0993 228.437 47.6589 227.539 46.8432Z" fill="black"/>
<path d="M68.3523 4.37262H74.9681L82.5772 19.6238L90.1899 4.37262H96.8445V31.2594H91.9866V10.8821L82.542 29.3561L73.0552 10.8432V31.2594H68.3523V4.37262Z" fill="black"/>
<path d="M100.557 21.3113C100.557 15.5519 104.993 11.0519 110.654 11.0519C116.237 11.0519 120.405 15.5837 120.405 21.6651V22.9104H105.451C105.761 24.2378 106.514 25.4185 107.586 26.2554C108.658 27.0923 109.983 27.5349 111.341 27.5094C112.999 27.5551 114.613 26.9643 115.853 25.8573L119.024 28.8149C116.81 30.6814 113.998 31.6782 111.108 31.6203C105.144 31.645 100.557 27.1132 100.557 21.3113ZM115.624 19.4292C115.05 16.8962 113.025 15.092 110.537 15.092C107.976 15.092 106.025 16.7795 105.412 19.4292H115.624Z" fill="black"/>
<path d="M123.734 4.37262L128.592 3.53064V31.2594H123.734V4.37262Z" fill="black"/>
<path d="M131.917 21.3113C131.917 15.5519 136.356 11.0519 142.017 11.0519C147.601 11.0519 151.768 15.5837 151.768 21.6651V22.9104H136.814C137.124 24.2378 137.878 25.4185 138.949 26.2554C140.021 27.0923 141.346 27.5349 142.704 27.5094C144.363 27.5551 145.976 26.9643 147.217 25.8573L150.387 28.8149C148.174 30.6814 145.361 31.6782 142.471 31.6203C136.525 31.645 131.917 27.1132 131.917 21.3113ZM146.988 19.4292C146.413 16.8962 144.388 15.092 141.901 15.092C139.34 15.092 137.388 16.7795 136.775 19.4292H146.988Z" fill="black"/>
<path d="M160.91 26.9576L163.893 23.2713C166.951 26.0378 169.745 27.2654 172.996 27.2654C176.519 27.2654 178.77 25.8078 178.77 23.579C178.77 21.5802 177.431 20.6215 174.067 20.0413L169.019 19.1569C164.313 18.3503 161.942 15.9305 161.942 12.0142C161.942 7.09673 165.919 3.98706 172.267 3.98706C176.238 4.00062 180.094 5.32307 183.244 7.75122L180.493 11.5897C177.622 9.36088 174.856 8.32433 171.964 8.32433C168.825 8.32433 166.8 9.62974 166.8 11.625C166.8 13.4328 167.948 14.3137 170.854 14.7772L175.709 15.5837C181.18 16.4646 183.811 18.9623 183.811 23.1121C183.811 28.2948 179.415 31.638 172.644 31.638C168.285 31.6164 164.095 29.9451 160.91 26.9576Z" fill="black"/>
<path d="M187.225 4.37262H199.502C204.856 4.37262 208.488 7.33017 208.488 11.671C208.488 14.1297 207.149 16.1285 205.008 17.395C207.724 18.5483 209.408 20.7736 209.408 23.5012C209.408 28.1497 205.695 31.2594 200.072 31.2594H187.225V4.37262ZM199.202 15.474C201.763 15.474 203.37 14.1686 203.37 12.0566C203.37 9.94456 201.763 8.63913 199.202 8.63913H192.357V15.4811L199.202 15.474ZM199.699 26.9964C202.454 26.9964 204.25 25.5 204.25 23.2323C204.25 20.9646 202.454 19.5071 199.699 19.5071H192.357V26.9964H199.699Z" fill="black"/>
<path d="M211.091 26.9576L214.072 23.2713C217.133 26.0378 219.923 27.2654 223.175 27.2654C226.697 27.2654 228.952 25.8078 228.952 23.579C228.952 21.5802 227.613 20.6215 224.245 20.0413L219.197 19.1569C214.494 18.3503 212.124 15.9305 212.124 12.0142C212.124 7.09673 216.101 3.98706 222.449 3.98706C226.419 4.00115 230.276 5.32354 233.426 7.75122L230.671 11.5897C227.803 9.36088 225.035 8.32433 222.142 8.32433C219.007 8.32433 216.982 9.62974 216.982 11.625C216.982 13.4328 218.126 14.3137 221.033 14.7772L225.891 15.5837C231.361 16.4646 233.993 18.9623 233.993 23.1121C233.993 28.2948 229.593 31.638 222.826 31.638C218.467 31.6164 214.277 29.9451 211.091 26.9576Z" fill="black"/>
<defs>
<linearGradient id="paint0_linear_13_100" x1="-14.3271" y1="25.7759" x2="70.5893" y2="25.7759" gradientUnits="userSpaceOnUse">
<stop stop-color="#0C7980"/>
<stop offset="1" stop-color="#18F1FF"/>
</linearGradient>
<linearGradient id="paint1_linear_13_100" x1="8.53217" y1="23.2818" x2="49.9423" y2="23.2818" gradientUnits="userSpaceOnUse">
<stop stop-color="#0C7980"/>
<stop offset="1" stop-color="#18F1FF"/>
</linearGradient>
<radialGradient id="paint2_radial_13_100" cx="0" cy="0" r="1" gradientUnits="userSpaceOnUse" gradientTransform="translate(29.5877 30.4988) scale(9.2543 9.29364)">
<stop stop-color="#0C7980"/>
<stop offset="1" stop-color="#18F1FF"/>
</radialGradient>
<radialGradient id="paint3_radial_13_100" cx="0" cy="0" r="1" gradientUnits="userSpaceOnUse" gradientTransform="translate(30.6446 9.87383) scale(31.1448 31.2771)">
<stop stop-color="#18F1FF"/>
<stop offset="1" stop-color="#327B80"/>
</radialGradient>
<radialGradient id="paint4_radial_13_100" cx="0" cy="0" r="1" gradientUnits="userSpaceOnUse" gradientTransform="translate(30.5177 10.1993) scale(30.1232 30.2512)">
<stop stop-color="#18F1FF"/>
<stop offset="1" stop-color="#327B80"/>
</radialGradient>
<radialGradient id="paint5_radial_13_100" cx="0" cy="0" r="1" gradientUnits="userSpaceOnUse" gradientTransform="translate(29.5877 30.4988) scale(9.2543 9.29363)">
<stop stop-color="#0C7980"/>
<stop offset="1" stop-color="#18F1FF"/>
</radialGradient>
<radialGradient id="paint6_radial_13_100" cx="0" cy="0" r="1" gradientUnits="userSpaceOnUse" gradientTransform="translate(30.6446 19.6415) scale(30.2324 30.3609)">
<stop stop-color="#18F1FF"/>
<stop offset="1" stop-color="#327B80"/>
</radialGradient>
<radialGradient id="paint7_radial_13_100" cx="0" cy="0" r="1" gradientUnits="userSpaceOnUse" gradientTransform="translate(30.5177 18.6261) scale(30.1232 30.2512)">
<stop stop-color="#18F1FF"/>
<stop offset="1" stop-color="#327B80"/>
</radialGradient>
<radialGradient id="paint8_radial_13_100" cx="0" cy="0" r="1" gradientUnits="userSpaceOnUse" gradientTransform="translate(29.5878 30.4988) scale(9.25433 9.29364)">
<stop stop-color="#0C7980"/>
<stop offset="1" stop-color="#18F1FF"/>
</radialGradient>
<radialGradient id="paint9_radial_13_100" cx="0" cy="0" r="1" gradientUnits="userSpaceOnUse" gradientTransform="translate(28.774 10.4151) rotate(180) scale(31.1448 31.2771)">
<stop stop-color="#18F1FF"/>
<stop offset="1" stop-color="#327B80"/>
</radialGradient>
<radialGradient id="paint10_radial_13_100" cx="0" cy="0" r="1" gradientUnits="userSpaceOnUse" gradientTransform="translate(27.6784 11.2854) rotate(180) scale(27.9356 28.0542)">
<stop stop-color="#18F1FF"/>
<stop offset="1" stop-color="#327B80"/>
</radialGradient>
<radialGradient id="paint11_radial_13_100" cx="0" cy="0" r="1" gradientUnits="userSpaceOnUse" gradientTransform="translate(29.5878 30.4988) scale(9.25433 9.29363)">
<stop stop-color="#0C7980"/>
<stop offset="1" stop-color="#18F1FF"/>
</radialGradient>
<radialGradient id="paint12_radial_13_100" cx="0" cy="0" r="1" gradientUnits="userSpaceOnUse" gradientTransform="translate(28.774 20.1863) rotate(180) scale(30.2324 30.3609)">
<stop stop-color="#18F1FF"/>
<stop offset="1" stop-color="#327B80"/>
</radialGradient>
<radialGradient id="paint13_radial_13_100" cx="0" cy="0" r="1" gradientUnits="userSpaceOnUse" gradientTransform="translate(27.6784 19.7123) rotate(180) scale(27.9356 28.0542)">
<stop stop-color="#18F1FF"/>
<stop offset="1" stop-color="#327B80"/>
</radialGradient>
<linearGradient id="paint14_linear_13_100" x1="45.0985" y1="1.35847" x2="6.44005" y2="16.8288" gradientUnits="userSpaceOnUse">
<stop stop-color="#18F1FF"/>
<stop offset="1" stop-color="#327B80"/>
</linearGradient>
<linearGradient id="paint15_linear_13_100" x1="29.6934" y1="31.9599" x2="5.54363" y2="55.5144" gradientUnits="userSpaceOnUse">
<stop stop-color="#18F1FF"/>
<stop offset="1" stop-color="#327B80"/>
</linearGradient>
<radialGradient id="paint16_radial_13_100" cx="0" cy="0" r="1" gradientUnits="userSpaceOnUse" gradientTransform="translate(3.32549 13.2417) scale(31.6204 31.7547)">
<stop stop-color="#18F1FF"/>
<stop offset="1" stop-color="#327B80"/>
</radialGradient>
<linearGradient id="paint17_linear_13_100" x1="38.9971" y1="-13.8785" x2="0.342118" y2="1.59178" gradientUnits="userSpaceOnUse">
<stop stop-color="#18F1FF"/>
<stop offset="1" stop-color="#327B80"/>
</linearGradient>
<linearGradient id="paint18_linear_13_100" x1="21.8907" y1="17.0766" x2="66.9749" y2="17.0065" gradientUnits="userSpaceOnUse">
<stop stop-color="#18F1FF"/>
<stop offset="1" stop-color="#327B80"/>
</linearGradient>
<linearGradient id="paint19_linear_13_100" x1="46.6062" y1="5.12618" x2="7.95126" y2="20.5965" gradientUnits="userSpaceOnUse">
<stop stop-color="#18F1FF"/>
<stop offset="1" stop-color="#327B80"/>
</linearGradient>
</defs>
</svg>
