<svg width="44" height="44" viewBox="0 0 44 44" fill="none" xmlns="http://www.w3.org/2000/svg">
<circle cx="22" cy="22" r="22" fill="#D9D9D9"/>
<path d="M12.5798 29.01L12.5598 29.03C12.2898 28.44 12.1198 27.77 12.0498 27.03C12.1198 27.76 12.3098 28.42 12.5798 29.01Z" fill="#292D32"/>
<path d="M19.0001 20.3801C20.3146 20.3801 21.3801 19.3146 21.3801 18.0001C21.3801 16.6857 20.3146 15.6201 19.0001 15.6201C17.6857 15.6201 16.6201 16.6857 16.6201 18.0001C16.6201 19.3146 17.6857 20.3801 19.0001 20.3801Z" fill="#292D32"/>
<path d="M26.19 12H17.81C14.17 12 12 14.17 12 17.81V26.19C12 27.28 12.19 28.23 12.56 29.03C13.42 30.93 15.26 32 17.81 32H26.19C29.83 32 32 29.83 32 26.19V23.9V17.81C32 14.17 29.83 12 26.19 12ZM30.37 22.5C29.59 21.83 28.33 21.83 27.55 22.5L23.39 26.07C22.61 26.74 21.35 26.74 20.57 26.07L20.23 25.79C19.52 25.17 18.39 25.11 17.59 25.65L13.85 28.16C13.63 27.6 13.5 26.95 13.5 26.19V17.81C13.5 14.99 14.99 13.5 17.81 13.5H26.19C29.01 13.5 30.5 14.99 30.5 17.81V22.61L30.37 22.5Z" fill="#292D32"/>
</svg>
