<svg xmlns="http://www.w3.org/2000/svg" width="25" height="24" viewBox="0 0 25 24" fill="none">
<path d="M12.4936 10.87C12.393 10.86 12.2722 10.86 12.1615 10.87C9.76688 10.79 7.86523 8.84 7.86523 6.44C7.86523 3.99 9.85743 2 12.3326 2C14.7977 2 16.7999 3.99 16.7999 6.44C16.7899 8.84 14.8882 10.79 12.4936 10.87Z" stroke="#001B19" stroke-width="1.5" stroke-linecap="round" stroke-linejoin="round"/>
<path d="M7.46266 14.56C5.02775 16.18 5.02775 18.82 7.46266 20.43C10.2296 22.27 14.7674 22.27 17.5343 20.43C19.9692 18.81 19.9692 16.17 17.5343 14.56C14.7774 12.73 10.2397 12.73 7.46266 14.56Z" stroke="#001B19" stroke-width="1.5" stroke-linecap="round" stroke-linejoin="round"/>
</svg>