<svg width="24" height="24" viewBox="0 0 24 24" fill="none" xmlns="http://www.w3.org/2000/svg">
<path d="M15.58 11.9999C15.58 13.9799 13.98 15.5799 12 15.5799C10.02 15.5799 8.42 13.9799 8.42 11.9999C8.42 10.0199 10.02 8.41992 12 8.41992C13.98 8.41992 15.58 10.0199 15.58 11.9999Z" stroke="#066163" stroke-width="1.5" stroke-linecap="round" stroke-linejoin="round"/>
<path d="M12 20.2707C15.53 20.2707 18.82 18.1907 21.11 14.5907C22.01 13.1807 22.01 10.8107 21.11 9.4007C18.82 5.8007 15.53 3.7207 12 3.7207C8.47 3.7207 5.18 5.8007 2.89 9.4007C1.99 10.8107 1.99 13.1807 2.89 14.5907C5.18 18.1907 8.47 20.2707 12 20.2707Z" stroke="#066163" stroke-width="1.5" stroke-linecap="round" stroke-linejoin="round"/>
</svg>
