<svg width="24" height="24" viewBox="0 0 24 24" fill="none" xmlns="http://www.w3.org/2000/svg">
<path d="M7.69961 11.1C5.79961 11.1 4.09961 9.5 4.09961 7.5C4.09961 5.5 5.79961 4 7.69961 4C9.59961 4 11.1996 5.6 11.1996 7.5C11.1996 9.5 9.59961 11.1 7.69961 11.1Z" stroke="#001B19" stroke-width="1.5" stroke-miterlimit="10" stroke-linecap="round" stroke-linejoin="round"/>
<path d="M9.3 20.7002H6C5 20.7002 4 19.9002 4 18.9002V15.6002C4 14.5002 4.9 13.7002 6 13.7002H9.3C10.3 13.7002 11.2 14.5002 11.2 15.6002V18.9002C11.2 19.8002 10.3 20.7002 9.3 20.7002Z" stroke="#001B19" stroke-width="1.5" stroke-miterlimit="10" stroke-linecap="round" stroke-linejoin="round"/>
<path d="M18.9998 20.7H15.6998C14.6998 20.7 13.7998 19.9 13.7998 18.8V5.9C13.7998 4.9 14.5998 4 15.6998 4H18.9998C19.9998 4 20.8998 4.8 20.8998 5.9V18.8C20.8998 19.8 19.9998 20.7 18.9998 20.7Z" stroke="#001B19" stroke-width="1.5" stroke-miterlimit="10" stroke-linecap="round" stroke-linejoin="round"/>
</svg>
