<svg width="24" height="24" viewBox="0 0 24 24" fill="none" xmlns="http://www.w3.org/2000/svg">
<path d="M11.3196 3H5.08961C3.09961 3 2.09961 4.01 2.09961 6.02V22H7.49961V18.25C7.49961 17.84 7.83961 17.5 8.24961 17.5C8.65961 17.5 8.99961 17.83 8.99961 18.25V22H14.2996V6.02C14.2996 4.01 13.3096 3 11.3196 3ZM10.7496 12.75H5.79961C5.38961 12.75 5.04961 12.41 5.04961 12C5.04961 11.59 5.38961 11.25 5.79961 11.25H10.7496C11.1596 11.25 11.4996 11.59 11.4996 12C11.4996 12.41 11.1596 12.75 10.7496 12.75ZM10.7496 9H5.79961C5.38961 9 5.04961 8.66 5.04961 8.25C5.04961 7.84 5.38961 7.5 5.79961 7.5H10.7496C11.1596 7.5 11.4996 7.84 11.4996 8.25C11.4996 8.66 11.1596 9 10.7496 9Z" fill="#001B19"/>
<path d="M23 21.2491H20.73V18.2491C21.68 17.9391 22.37 17.0491 22.37 15.9991V13.9991C22.37 12.6891 21.3 11.6191 19.99 11.6191C18.68 11.6191 17.61 12.6891 17.61 13.9991V15.9991C17.61 17.0391 18.29 17.9191 19.22 18.2391V21.2491H1C0.59 21.2491 0.25 21.5891 0.25 21.9991C0.25 22.4091 0.59 22.7491 1 22.7491H19.93C19.95 22.7491 19.96 22.7591 19.98 22.7591C20 22.7591 20.01 22.7491 20.03 22.7491H23C23.41 22.7491 23.75 22.4091 23.75 21.9991C23.75 21.5891 23.41 21.2491 23 21.2491Z" fill="#001B19"/>
</svg>
