<svg width="25" height="24" viewBox="0 0 25 24" fill="none" xmlns="http://www.w3.org/2000/svg">
<path d="M16.6521 3.85938H9.91207V6.87938C9.91207 7.26938 9.59207 7.57938 9.21207 7.57938C8.83207 7.57938 8.51207 7.26938 8.51207 6.87938V3.85938H7.35207C3.40207 3.85938 2.10207 5.03937 2.01207 8.72937C2.00207 8.90937 2.08207 9.09937 2.21207 9.22937C2.34207 9.36937 2.51207 9.43937 2.71207 9.43937C4.11207 9.43937 5.26207 10.5994 5.26207 11.9994C5.26207 13.3994 4.11207 14.5594 2.71207 14.5594C2.52207 14.5594 2.34207 14.6294 2.21207 14.7694C2.08207 14.8994 2.00207 15.0894 2.01207 15.2694C2.10207 18.9594 3.40207 20.1394 7.35207 20.1394H8.51207V17.1194C8.51207 16.7294 8.83207 16.4194 9.21207 16.4194C9.59207 16.4194 9.91207 16.7294 9.91207 17.1194V20.1394H16.6521C20.7521 20.1394 22.0021 18.8894 22.0021 14.7894V9.20938C22.0021 5.10938 20.7521 3.85938 16.6521 3.85938ZM18.4721 11.8994L17.5421 12.7994C17.5021 12.8294 17.4921 12.8894 17.5021 12.9394L17.7221 14.2094C17.7621 14.4394 17.6721 14.6794 17.4721 14.8194C17.2821 14.9594 17.0321 14.9794 16.8221 14.8694L15.6721 14.2694C15.6321 14.2494 15.5721 14.2494 15.5321 14.2694L14.3821 14.8694C14.2921 14.9194 14.1921 14.9394 14.0921 14.9394C13.9621 14.9394 13.8421 14.8994 13.7321 14.8194C13.5421 14.6794 13.4421 14.4494 13.4821 14.2094L13.7021 12.9394C13.7121 12.8894 13.6921 12.8394 13.6621 12.7994L12.7321 11.8994C12.5621 11.7394 12.5021 11.4894 12.5721 11.2694C12.6421 11.0394 12.8321 10.8794 13.0721 10.8494L14.3521 10.6594C14.4021 10.6494 14.4421 10.6194 14.4721 10.5794L15.0421 9.41938C15.1521 9.20938 15.3621 9.07938 15.6021 9.07938C15.8421 9.07938 16.0521 9.20938 16.1521 9.41938L16.7221 10.5794C16.7421 10.6294 16.7821 10.6594 16.8321 10.6594L18.1121 10.8494C18.3521 10.8794 18.5421 11.0494 18.6121 11.2694C18.7021 11.4894 18.6421 11.7294 18.4721 11.8994Z" fill="#066163"/>
</svg>
