<svg width="24" height="24" viewBox="0 0 24 24" fill="none" xmlns="http://www.w3.org/2000/svg">
<path d="M13.43 5.43V6.77C10.81 6.98 9.32 8.66 9.32 11.43V16H5.43C3.14 16 2 14.86 2 12.57V5.43C2 3.14 3.14 2 5.43 2H10C12.29 2 13.43 3.14 13.43 5.43Z" fill="#066163"/>
<path d="M18.5698 8H13.9998C11.7098 8 10.5698 9.14 10.5698 11.43V18.57C10.5698 20.86 11.7098 22 13.9998 22H18.5698C20.8598 22 21.9998 20.86 21.9998 18.57V11.43C21.9998 9.14 20.8598 8 18.5698 8ZM18.1298 15.75H17.2498V16.63C17.2498 17.04 16.9098 17.38 16.4998 17.38C16.0898 17.38 15.7498 17.04 15.7498 16.63V15.75H14.8698C14.4598 15.75 14.1198 15.41 14.1198 15C14.1198 14.59 14.4598 14.25 14.8698 14.25H15.7498V13.37C15.7498 12.96 16.0898 12.62 16.4998 12.62C16.9098 12.62 17.2498 12.96 17.2498 13.37V14.25H18.1298C18.5398 14.25 18.8798 14.59 18.8798 15C18.8798 15.41 18.5398 15.75 18.1298 15.75Z" fill="#066163"/>
</svg>
