<svg width="25" height="24" viewBox="0 0 25 24" fill="none" xmlns="http://www.w3.org/2000/svg">
<path d="M21.452 13.6406V14.6406C21.452 14.9106 21.242 15.1306 20.962 15.1406H19.502C18.972 15.1406 18.492 14.7506 18.452 14.2306C18.422 13.9206 18.542 13.6306 18.742 13.4306C18.922 13.2406 19.172 13.1406 19.442 13.1406H20.952C21.242 13.1506 21.452 13.3706 21.452 13.6406Z" fill="#001B19"/>
<path d="M17.992 12.6906C17.492 13.1806 17.252 13.9106 17.452 14.6706C17.712 15.6006 18.622 16.1906 19.582 16.1906H20.452C21.002 16.1906 21.452 16.6406 21.452 17.1906V17.3806C21.452 19.4506 19.762 21.1406 17.692 21.1406H6.21197C4.14197 21.1406 2.45197 19.4506 2.45197 17.3806V10.6506C2.45197 9.42062 3.04197 8.33063 3.95197 7.65063C4.58197 7.17063 5.36197 6.89062 6.21197 6.89062H17.692C19.762 6.89062 21.452 8.58062 21.452 10.6506V11.0906C21.452 11.6406 21.002 12.0906 20.452 12.0906H19.432C18.872 12.0906 18.362 12.3106 17.992 12.6906Z" fill="#001B19"/>
<path d="M16.202 4.82C16.472 5.09 16.242 5.51 15.862 5.51L8.18195 5.5C7.74195 5.5 7.51195 4.96 7.83195 4.65L9.45195 3.02C10.822 1.66 13.042 1.66 14.412 3.02L16.162 4.79C16.172 4.8 16.192 4.81 16.202 4.82Z" fill="#001B19"/>
</svg>
